<?xml version="1.0" encoding="UTF-8" ?>
<!DOCTYPE svg PUBLIC "-//W3C//DTD SVG 1.1//EN" "http://www.w3.org/Graphics/SVG/1.1/DTD/svg11.dtd">
<svg width="512pt" height="512pt" viewBox="0 0 512 512" version="1.1" xmlns="http://www.w3.org/2000/svg">
<g id="#ffffffff">
</g>
<g id="#bdbdbdff">
<path fill="#bdbdbd" opacity="1.00" d=" M 234.65 0.00 L 238.63 0.00 L 238.92 0.60 C 237.51 1.42 235.65 1.77 234.28 0.69 L 234.65 0.00 Z" />
</g>
<g id="#585858ff">
<path fill="#585858" opacity="1.00" d=" M 238.63 0.00 L 247.24 0.00 L 247.13 0.80 C 244.39 1.09 241.64 0.96 238.92 0.60 L 238.63 0.00 Z" />
</g>
<g id="#141414ff">
<path fill="#141414" opacity="1.00" d=" M 247.24 0.00 L 254.24 0.00 C 252.57 2.14 249.42 0.89 247.13 0.80 L 247.24 0.00 Z" />
</g>
<g id="#e36394ff">
<path fill="#e36394" opacity="1.00" d=" M 254.24 0.00 L 257.42 0.00 C 258.53 1.47 260.47 0.93 262.02 1.05 C 264.97 1.01 267.91 0.84 270.84 0.56 C 272.40 1.45 274.28 1.41 275.88 0.61 C 276.53 0.70 277.83 0.87 278.49 0.96 L 279.30 1.94 C 281.91 2.12 284.53 1.90 287.15 1.88 L 287.85 2.04 C 288.91 4.44 291.93 3.04 293.82 2.71 L 294.36 2.86 C 295.38 4.46 297.45 3.83 299.00 4.25 C 306.64 5.73 314.25 7.34 321.74 9.47 C 323.28 10.02 324.92 9.90 326.52 9.76 L 326.53 9.76 C 326.92 10.09 327.70 10.75 328.09 11.08 C 333.49 13.05 339.03 14.63 344.43 16.61 C 347.08 17.55 349.62 19.35 352.57 18.79 L 352.66 18.84 C 354.51 21.54 358.07 21.81 360.80 23.19 C 370.46 28.04 380.28 32.65 389.37 38.53 C 393.62 41.72 398.55 43.87 402.64 47.28 C 404.16 48.34 405.61 50.09 407.70 49.70 L 407.91 49.86 C 410.06 54.36 415.33 55.88 418.61 59.39 C 421.21 62.43 424.91 64.21 427.51 67.26 C 430.64 70.11 433.07 74.17 437.47 75.17 C 437.59 75.29 437.82 75.53 437.94 75.65 C 437.49 78.07 439.65 79.41 441.09 80.93 C 444.35 84.03 447.58 87.18 450.15 90.89 C 454.65 95.14 457.80 100.53 461.85 105.17 C 464.90 110.32 469.02 114.76 471.83 120.06 C 477.00 127.85 481.41 136.10 485.48 144.51 C 486.99 147.22 487.85 150.42 490.28 152.51 C 490.30 152.56 490.35 152.66 490.37 152.71 L 490.08 154.46 C 493.16 161.95 496.29 169.44 498.64 177.21 C 499.85 179.95 499.92 183.38 502.23 185.51 L 502.23 185.52 C 502.08 187.09 501.97 188.70 502.51 190.22 C 504.41 196.95 505.94 203.78 507.28 210.63 L 508.22 211.55 L 508.26 211.72 C 507.34 215.79 509.38 219.64 509.10 223.72 L 510.14 224.52 L 510.19 224.94 C 510.08 227.87 509.85 230.81 510.05 233.74 L 511.12 234.53 C 511.29 235.63 511.46 236.74 511.63 237.85 C 510.71 239.22 510.59 240.66 511.27 242.15 C 510.89 252.34 510.68 262.58 511.59 272.76 C 510.74 274.06 510.59 275.42 511.15 276.85 L 511.12 277.40 C 508.68 279.90 510.59 283.99 510.10 287.14 L 509.95 287.83 C 507.55 288.91 508.97 291.93 509.27 293.84 L 509.13 294.38 C 507.38 295.62 508.24 298.01 507.59 299.78 C 506.97 301.64 506.98 303.59 507.18 305.53 L 507.07 305.91 C 504.94 306.17 505.72 308.70 506.34 309.97 L 506.19 310.35 C 505.89 310.78 505.28 311.65 504.98 312.08 C 504.22 316.90 501.75 321.51 502.23 326.46 L 502.23 326.46 C 499.84 328.81 499.74 332.45 498.43 335.40 C 496.19 342.88 493.10 350.06 490.19 357.30 C 490.20 357.85 490.23 358.94 490.24 359.49 L 490.13 359.75 C 489.27 360.40 488.61 361.20 488.12 362.14 C 484.47 369.16 481.39 376.49 477.13 383.17 C 476.05 385.18 474.14 386.90 474.19 389.34 L 473.87 389.93 C 470.53 391.95 469.77 396.17 467.26 398.98 C 465.43 401.81 462.55 404.32 462.14 407.80 L 462.13 407.84 C 457.00 410.67 455.27 416.97 450.69 420.53 C 447.41 425.22 443.13 429.04 439.10 433.08 C 437.82 434.16 437.55 435.88 436.95 437.35 C 436.80 437.50 436.51 437.78 436.36 437.93 C 433.69 437.53 432.31 440.07 430.61 441.61 C 428.50 443.94 425.75 445.80 424.51 448.80 C 424.47 448.84 424.39 448.91 424.34 448.95 C 420.95 448.71 418.97 452.25 417.47 454.77 C 417.42 454.81 417.32 454.89 417.27 454.93 C 416.75 455.01 415.71 455.17 415.20 455.25 C 410.29 458.98 405.44 462.81 400.32 466.25 C 397.03 469.22 392.58 470.51 389.54 473.78 L 389.20 473.88 C 384.51 475.64 380.66 479.10 376.12 481.20 C 369.28 484.30 362.87 488.31 355.76 490.79 C 354.54 491.25 353.38 491.95 352.75 493.14 L 352.51 493.22 C 349.60 492.64 347.08 494.44 344.46 495.37 C 339.04 497.36 333.48 498.94 328.07 500.93 C 327.68 501.25 326.89 501.90 326.50 502.23 L 326.50 502.23 C 324.91 502.09 323.29 501.97 321.76 502.52 C 314.27 504.64 306.67 506.28 299.02 507.72 C 297.46 508.14 295.42 507.56 294.37 509.11 L 293.85 509.26 C 291.94 508.96 288.94 507.57 287.85 509.95 L 287.10 510.12 C 284.15 510.10 281.20 509.86 278.26 510.05 L 277.49 511.13 C 276.89 511.20 275.70 511.36 275.10 511.44 C 273.51 510.69 271.62 510.43 270.05 511.39 C 265.87 511.50 261.05 509.75 257.29 512.00 L 254.51 512.00 C 253.58 510.37 251.49 511.17 250.01 510.95 C 246.39 510.94 242.78 511.18 239.20 511.59 C 237.72 510.95 235.83 510.11 234.37 511.22 L 233.73 510.10 C 230.79 509.75 227.83 510.15 224.88 510.12 L 224.16 509.95 C 223.08 507.56 220.07 508.99 218.17 509.25 L 217.19 508.93 C 216.35 506.75 213.72 507.83 212.11 508.29 L 211.64 508.13 C 208.83 506.27 204.93 505.89 201.59 506.27 L 201.54 506.26 C 200.52 504.63 198.47 504.74 196.85 504.24 C 193.06 503.62 189.45 501.61 185.53 502.22 L 185.52 502.22 C 183.85 500.24 181.11 500.07 178.86 499.17 C 162.63 494.04 146.92 487.32 132.04 479.07 C 124.68 474.40 116.83 470.48 110.02 465.01 C 105.18 462.28 101.20 458.39 96.69 455.23 C 96.21 455.15 95.25 455.01 94.76 454.94 C 94.70 454.88 94.56 454.78 94.50 454.72 C 93.03 452.20 91.05 448.74 87.69 448.93 C 87.63 448.88 87.50 448.77 87.44 448.72 C 85.17 444.47 81.13 441.49 77.75 438.16 C 77.23 438.09 76.17 437.95 75.64 437.88 C 75.49 437.74 75.20 437.45 75.05 437.31 C 74.44 435.59 73.90 433.77 72.42 432.58 C 68.48 428.76 64.47 425.00 61.29 420.50 C 56.71 416.96 55.02 410.63 49.85 407.85 L 49.84 407.83 C 48.96 402.76 44.20 399.50 42.13 394.92 C 39.69 391.54 38.06 387.58 35.22 384.53 L 35.10 384.19 C 34.21 380.43 31.31 377.68 29.84 374.18 C 27.14 368.20 23.58 362.62 21.46 356.39 C 20.93 354.91 20.16 353.48 18.79 352.61 L 18.79 352.61 C 19.39 349.68 17.58 347.14 16.65 344.51 C 14.65 339.08 13.06 333.50 11.07 328.07 C 10.75 327.69 10.10 326.92 9.77 326.54 L 9.76 326.50 C 10.27 321.54 7.77 316.91 7.01 312.08 C 6.69 311.68 6.06 310.87 5.74 310.47 L 5.73 310.41 C 6.52 305.29 3.95 300.45 3.78 295.35 L 2.79 294.47 L 2.75 294.26 C 2.92 292.00 3.37 289.67 2.55 287.49 C 1.57 284.51 2.21 281.33 1.95 278.27 L 0.90 277.43 C 0.79 276.85 0.57 275.68 0.46 275.09 C 1.35 273.68 1.41 272.24 0.63 270.76 C 1.18 260.27 1.36 249.70 0.39 239.23 C 1.04 237.74 1.87 235.81 0.77 234.32 L 1.91 233.74 C 2.25 230.81 1.87 227.86 1.79 224.94 L 1.84 224.52 L 2.91 223.73 C 2.79 219.83 3.96 216.09 4.43 212.26 C 4.89 208.68 6.54 205.21 5.74 201.56 L 5.74 201.56 C 6.05 201.15 6.68 200.33 7.00 199.92 C 7.75 195.08 10.28 190.45 9.75 185.49 L 9.75 185.48 C 10.08 185.09 10.75 184.31 11.08 183.92 C 13.05 178.51 14.64 172.96 16.62 167.55 C 17.54 164.92 19.36 162.39 18.78 159.46 L 18.84 159.29 C 19.28 158.84 20.15 157.94 20.59 157.49 C 28.58 138.29 39.13 120.18 51.48 103.47 C 55.10 99.39 57.80 94.56 61.87 90.87 C 64.31 87.01 67.93 84.21 70.83 80.76 C 70.92 80.23 71.11 79.16 71.20 78.63 C 71.32 78.50 71.56 78.25 71.68 78.12 C 75.31 76.50 77.27 72.75 80.69 70.81 C 104.14 48.67 131.74 30.64 161.87 18.90 L 162.34 17.53 C 162.53 17.46 162.90 17.32 163.09 17.26 L 163.14 17.80 L 163.64 17.66 L 163.65 17.06 L 164.33 16.82 C 168.63 17.05 172.46 14.61 176.54 13.59 C 179.48 12.25 183.21 12.22 185.50 9.75 L 185.50 9.75 C 189.17 10.45 192.56 8.57 196.10 7.96 C 200.86 6.53 205.80 5.83 210.63 4.71 L 211.58 3.80 L 211.76 3.76 C 215.83 4.63 219.66 2.59 223.73 2.91 L 224.49 1.84 L 224.91 1.78 C 227.78 1.60 231.19 3.03 233.66 1.06 L 234.28 0.69 C 235.65 1.77 237.51 1.42 238.92 0.60 C 241.64 0.96 244.39 1.09 247.13 0.80 C 249.42 0.89 252.57 2.14 254.24 0.00 M 192.08 110.18 C 188.73 109.95 185.36 109.96 182.00 109.97 L 181.95 111.22 L 181.29 111.31 C 179.35 110.95 177.26 110.53 175.40 111.45 C 154.23 114.84 134.66 127.32 123.01 145.37 L 123.40 146.72 L 123.25 146.97 C 122.82 147.12 121.98 147.42 121.56 147.56 C 117.30 155.16 113.94 163.35 112.07 171.89 C 111.90 175.07 110.10 178.04 111.32 181.26 L 111.22 181.93 L 109.97 182.01 C 109.96 185.37 109.92 188.73 110.15 192.09 L 110.06 192.98 L 108.99 193.01 C 109.18 200.12 108.54 207.28 109.42 214.35 C 109.18 233.90 108.84 253.45 109.14 273.00 C 109.31 283.68 109.08 294.37 109.86 305.03 C 110.28 309.93 109.77 314.86 110.15 319.77 C 110.01 322.89 109.78 326.04 110.03 329.17 C 110.95 331.34 111.13 333.66 111.00 336.01 L 112.27 336.04 L 112.37 336.64 C 111.83 338.11 111.79 339.57 112.23 341.02 C 114.68 350.55 118.28 359.98 124.07 368.02 C 127.89 374.15 133.20 379.05 138.30 384.09 L 139.79 383.63 L 139.97 383.77 C 140.17 386.19 142.74 387.04 144.44 388.24 C 148.91 391.50 153.88 394.03 159.09 395.86 C 161.74 396.91 164.47 398.81 167.43 397.67 L 168.00 397.83 L 168.00 398.89 C 172.40 399.80 176.84 401.70 181.35 400.66 L 182.02 400.77 L 181.99 402.02 C 185.37 402.05 188.75 402.06 192.12 401.82 C 222.06 402.80 252.05 403.30 282.01 402.73 C 294.65 402.94 307.25 401.84 319.87 401.82 C 327.06 402.84 333.95 400.89 340.96 399.76 C 342.05 399.24 344.30 399.54 344.13 397.80 L 344.59 397.67 C 347.78 398.85 350.64 396.65 353.51 395.60 C 358.53 393.91 363.22 391.31 367.52 388.25 C 369.21 387.00 371.90 386.18 371.99 383.72 L 372.07 383.66 L 373.67 384.13 C 378.96 378.91 384.41 373.81 388.30 367.43 C 393.15 360.87 395.99 353.15 398.61 345.50 C 399.06 342.51 400.85 339.61 399.65 336.56 L 399.75 336.00 L 401.00 336.00 C 400.92 333.65 400.97 331.27 402.00 329.10 C 402.16 326.03 402.01 322.94 401.85 319.87 L 401.94 319.02 L 403.00 319.04 C 402.85 311.27 403.40 303.45 402.64 295.71 C 402.86 273.88 403.14 252.04 402.78 230.21 C 403.33 218.11 402.97 205.97 402.99 193.87 C 401.66 190.69 402.04 187.25 402.05 183.91 C 400.90 178.11 400.25 172.17 398.59 166.45 C 395.68 157.25 391.65 148.27 385.64 140.68 C 385.17 140.51 384.25 140.17 383.78 140.00 L 383.60 139.78 L 384.11 138.31 C 380.09 134.52 376.63 130.06 372.00 126.98 C 360.41 117.63 345.81 112.26 331.14 110.64 C 327.57 109.24 323.62 110.17 319.89 110.15 C 312.61 109.94 305.32 110.09 298.05 109.50 C 270.35 108.89 242.62 108.94 214.91 109.44 C 207.31 110.07 199.69 109.90 192.08 110.18 Z" />
<path fill="#e36394" opacity="1.00" d=" M 204.57 136.08 C 205.17 136.02 206.37 135.91 206.97 135.86 C 239.65 136.11 272.35 136.10 305.03 135.86 C 305.63 135.92 306.83 136.03 307.43 136.09 L 308.30 136.91 C 313.03 137.17 317.78 136.99 322.51 136.85 L 323.39 137.06 L 324.30 137.84 C 327.63 137.80 330.76 139.36 334.11 138.93 L 334.33 138.92 C 336.69 140.97 339.95 141.19 342.75 142.36 C 350.10 144.93 355.94 150.27 361.83 155.15 L 362.04 155.94 C 362.05 156.24 362.06 156.83 362.07 157.13 C 365.94 160.48 368.15 165.33 369.94 170.02 C 370.94 172.57 371.16 175.54 373.08 177.65 L 373.07 177.87 C 372.67 181.37 374.31 184.64 374.15 188.16 C 375.85 193.53 374.53 199.21 375.08 204.73 L 375.94 205.54 C 375.99 205.91 376.09 206.66 376.14 207.03 C 375.88 239.98 375.99 272.95 376.09 305.91 L 375.93 306.41 L 375.09 307.29 C 374.49 312.80 375.93 318.54 374.10 323.89 C 373.75 325.65 374.13 327.45 374.20 329.23 L 373.67 329.81 C 372.42 330.74 372.78 332.41 373.02 333.71 L 373.11 334.30 C 371.51 335.97 371.13 338.31 370.43 340.42 C 368.88 345.58 366.26 350.44 362.70 354.49 C 360.93 356.60 358.97 358.66 358.01 361.29 L 357.71 361.96 L 357.16 361.99 C 356.68 362.02 355.74 362.07 355.26 362.10 C 350.99 365.88 345.93 368.81 340.45 370.43 C 338.37 371.15 335.99 371.43 334.39 373.09 L 334.10 373.08 C 330.76 372.64 327.64 374.21 324.32 374.16 L 323.40 374.93 C 323.09 375.00 322.47 375.15 322.15 375.22 C 317.54 375.01 312.91 374.81 308.30 375.09 L 307.42 375.92 C 306.85 375.97 305.70 376.08 305.12 376.13 C 272.42 375.91 239.71 375.89 207.01 376.14 C 206.40 376.08 205.17 375.98 204.56 375.92 L 203.71 375.09 C 199.10 374.82 194.48 374.99 189.88 375.22 C 189.57 375.13 188.97 374.97 188.66 374.89 C 185.32 373.60 181.43 373.06 177.80 373.10 L 177.61 373.10 C 176.22 371.59 174.12 371.28 172.28 370.66 C 166.53 369.04 161.17 366.08 156.72 362.10 C 156.19 362.04 155.12 361.91 154.59 361.84 L 154.29 361.81 L 154.05 361.28 C 153.35 359.41 151.90 358.02 150.70 356.50 C 148.78 354.21 147.41 351.46 145.02 349.60 L 144.99 349.54 C 144.60 346.80 142.80 344.57 142.04 341.95 C 141.06 339.40 140.82 336.45 138.91 334.36 L 138.93 334.07 C 139.32 330.61 137.68 327.37 137.86 323.89 C 136.17 318.50 137.46 312.81 136.92 307.28 L 136.07 306.41 C 136.01 306.06 135.90 305.34 135.85 304.98 C 136.18 272.02 135.97 239.05 135.95 206.09 L 135.96 205.58 C 137.65 204.65 136.81 202.52 137.04 201.01 C 137.03 197.32 137.01 193.64 136.76 189.96 C 136.85 189.63 137.02 188.96 137.11 188.63 C 138.43 185.30 138.94 181.39 138.91 177.77 L 138.90 177.61 C 140.70 175.81 140.92 173.15 141.78 170.87 C 143.37 165.62 146.35 160.93 149.78 156.70 C 149.94 156.10 150.24 154.89 150.40 154.29 C 150.59 154.21 150.97 154.06 151.16 153.98 C 153.19 153.94 154.80 152.31 155.03 150.34 L 155.23 150.27 C 156.73 150.00 157.87 148.98 159.02 148.07 C 162.88 144.91 167.48 142.75 172.25 141.35 C 174.14 140.76 176.18 140.31 177.68 138.91 L 177.87 138.92 C 181.47 138.91 185.33 138.40 188.63 137.11 C 188.94 137.02 189.56 136.86 189.87 136.78 C 194.47 137.01 199.09 137.17 203.70 136.91 L 204.57 136.08 M 323.49 162.72 C 320.20 165.65 316.21 169.58 317.15 174.37 L 316.97 175.10 C 315.25 175.13 315.24 179.87 316.97 179.91 L 317.17 180.67 C 316.23 183.56 318.15 186.19 319.65 188.50 C 322.53 191.87 326.57 195.80 331.37 194.84 L 332.10 195.02 C 332.09 196.75 336.90 196.75 336.89 195.03 L 337.69 194.83 C 338.31 194.90 339.53 195.03 340.15 195.10 C 348.39 192.42 353.89 183.66 352.95 175.11 L 351.79 174.77 C 351.75 174.56 351.65 174.15 351.60 173.94 C 353.07 172.03 351.25 170.15 350.56 168.41 C 345.40 159.03 331.96 155.97 323.49 162.72 M 241.01 181.00 L 240.93 182.22 L 240.34 182.34 C 237.40 181.11 234.61 182.76 231.87 183.64 C 222.97 186.16 215.23 191.42 207.68 196.60 C 203.62 200.44 199.73 204.46 195.79 208.43 L 196.39 210.00 L 196.38 210.02 L 195.08 210.04 C 194.05 211.87 191.60 213.59 192.28 215.85 L 192.24 215.91 C 189.61 216.05 189.39 219.28 188.22 221.04 C 185.29 225.98 183.73 231.52 181.92 236.92 C 182.00 237.77 182.16 239.47 182.24 240.31 L 182.04 241.10 C 179.85 240.90 180.46 244.67 181.37 245.85 L 181.12 246.94 L 179.99 247.01 C 179.96 252.75 180.08 258.50 179.91 264.24 C 181.43 266.19 180.95 268.74 180.96 271.04 L 182.21 270.98 L 182.34 271.62 C 181.17 274.56 182.70 277.36 183.63 280.11 C 185.10 285.56 187.93 290.52 190.58 295.45 C 191.01 295.63 191.88 295.98 192.31 296.15 L 192.32 296.16 L 192.00 297.63 C 197.81 306.53 205.46 314.13 214.33 319.98 L 215.76 319.63 L 215.95 319.75 C 215.74 321.64 217.82 322.14 219.09 322.85 C 222.73 324.44 226.07 326.72 229.94 327.74 C 233.40 328.54 236.73 331.04 240.39 329.66 L 240.93 329.77 L 241.01 331.00 C 243.30 331.02 245.77 330.70 247.77 332.09 C 253.22 331.89 258.68 332.09 264.13 332.01 C 266.26 330.87 268.66 330.93 271.00 331.00 L 271.02 329.78 L 271.62 329.66 C 273.25 330.02 275.03 330.40 276.62 329.61 C 281.50 327.92 286.46 326.46 290.92 323.80 C 292.62 322.61 296.01 322.42 295.98 319.81 L 296.30 319.60 C 297.85 320.81 298.91 318.84 300.14 318.25 C 308.01 312.76 314.70 305.69 319.97 297.67 L 319.63 296.23 L 319.72 296.09 C 321.62 296.28 322.12 294.23 322.83 292.95 C 324.45 289.25 326.78 285.85 327.79 281.90 C 328.60 278.49 331.04 275.21 329.66 271.60 L 329.79 270.97 L 331.00 271.04 C 330.99 268.73 330.72 266.29 331.98 264.23 C 332.08 258.50 331.95 252.75 332.01 247.01 L 330.86 246.92 L 330.61 245.84 C 331.51 244.68 332.16 240.90 329.96 241.11 L 329.77 240.38 C 329.85 239.51 330.00 237.75 330.07 236.88 C 328.00 229.79 325.16 222.98 321.47 216.58 C 321.04 216.42 320.19 216.10 319.76 215.94 L 319.59 215.66 L 320.00 214.37 C 314.71 206.35 308.04 199.25 300.14 193.76 C 298.87 193.11 297.80 191.16 296.15 192.31 L 296.13 192.29 C 296.25 190.39 294.22 189.86 292.91 189.15 C 289.24 187.54 285.86 185.23 281.94 184.22 C 278.53 183.40 275.24 180.97 271.63 182.34 L 270.99 182.22 L 271.01 181.00 C 268.66 181.07 266.25 181.10 264.12 179.99 C 258.69 180.00 253.25 179.93 247.82 180.01 C 245.71 181.11 243.32 181.07 241.01 181.00 Z" />
<path fill="#e36394" opacity="1.00" d=" M 244.24 209.42 C 250.91 206.94 258.11 208.49 265.03 207.90 L 265.34 207.90 C 266.99 209.52 269.35 209.84 271.45 210.57 C 279.74 213.02 286.64 218.56 292.85 224.38 L 292.89 224.49 C 293.16 226.10 294.44 227.20 295.35 228.46 C 298.23 232.27 300.32 236.66 301.66 241.24 C 302.26 243.11 302.66 245.14 304.08 246.61 L 304.07 246.96 C 303.56 254.12 305.06 261.56 302.39 268.43 C 298.58 283.51 286.93 296.28 272.16 301.22 C 269.85 302.06 267.24 302.36 265.36 304.09 L 265.01 304.08 C 258.06 303.53 250.84 305.06 244.15 302.58 C 237.40 300.84 230.91 297.86 225.69 293.18 C 225.07 293.02 223.83 292.71 223.20 292.55 C 223.16 292.45 223.07 292.25 223.02 292.15 C 219.73 286.80 214.89 282.35 212.44 276.41 C 210.49 272.90 210.50 268.47 207.86 265.36 L 207.87 264.97 C 208.08 258.98 208.07 252.99 207.86 247.00 L 208.05 246.67 C 209.91 243.91 210.36 240.54 211.61 237.51 C 214.00 231.45 218.04 226.19 222.31 221.33 C 228.53 215.71 236.06 211.43 244.24 209.42 Z" />
</g>
<g id="#2d2d2dff">
<path fill="#2d2d2d" opacity="1.00" d=" M 257.42 0.00 L 271.19 0.00 L 270.84 0.56 C 267.91 0.84 264.97 1.01 262.02 1.05 C 260.47 0.93 258.53 1.47 257.42 0.00 Z" />
<path fill="#2d2d2d" opacity="1.00" d=" M 0.00 238.86 L 0.39 239.23 C 1.36 249.70 1.18 260.27 0.63 270.76 L 0.00 271.01 L 0.00 238.86 Z" />
<path fill="#2d2d2d" opacity="1.00" d=" M 511.27 242.15 L 512.00 242.11 L 512.00 273.14 L 511.59 272.76 C 510.68 262.58 510.89 252.34 511.27 242.15 Z" />
</g>
<g id="#999999ff">
<path fill="#999999" opacity="1.00" d=" M 271.19 0.00 L 276.00 0.00 L 275.88 0.61 C 274.28 1.41 272.40 1.45 270.84 0.56 L 271.19 0.00 Z" />
</g>
<g id="#6d6d6dff">
<path fill="#6d6d6d" opacity="1.00" d=" M 224.91 1.78 C 227.78 1.12 230.72 0.81 233.66 1.06 C 231.19 3.03 227.78 1.60 224.91 1.78 Z" />
<path fill="#6d6d6d" opacity="1.00" d=" M 278.49 0.96 C 281.40 0.93 284.34 1.02 287.15 1.88 C 284.53 1.90 281.91 2.12 279.30 1.94 L 278.49 0.96 Z" />
</g>
<g id="#766c70ff">
<path fill="#766c70" opacity="1.00" d=" M 211.76 3.76 C 215.94 2.78 220.21 2.14 224.49 1.84 L 223.73 2.91 C 219.66 2.59 215.83 4.63 211.76 3.76 Z" />
</g>
<g id="#626262ff">
<path fill="#626262" opacity="1.00" d=" M 287.85 2.04 C 289.86 1.66 291.92 1.92 293.82 2.71 C 291.93 3.04 288.91 4.44 287.85 2.04 Z" />
</g>
<g id="#745f67ff">
<path fill="#745f67" opacity="1.00" d=" M 294.36 2.86 C 305.26 4.08 316.04 6.58 326.52 9.76 C 324.92 9.90 323.28 10.02 321.74 9.47 C 314.25 7.34 306.64 5.73 299.00 4.25 C 297.45 3.83 295.38 4.46 294.36 2.86 Z" />
</g>
<g id="#766169ff">
<path fill="#766169" opacity="1.00" d=" M 185.50 9.75 C 194.01 7.08 202.76 5.13 211.58 3.80 L 210.63 4.71 C 205.80 5.83 200.86 6.53 196.10 7.96 C 192.56 8.57 189.17 10.45 185.50 9.75 Z" />
</g>
<g id="#785a65ff">
<path fill="#785a65" opacity="1.00" d=" M 164.33 16.82 C 171.19 13.93 178.30 11.63 185.50 9.75 C 183.21 12.22 179.48 12.25 176.54 13.59 C 172.46 14.61 168.63 17.05 164.33 16.82 Z" />
</g>
<g id="#735460ff">
<path fill="#735460" opacity="1.00" d=" M 326.53 9.76 C 335.41 12.09 344.17 15.05 352.57 18.79 C 349.62 19.35 347.08 17.55 344.43 16.61 C 339.03 14.63 333.49 13.05 328.09 11.08 C 327.70 10.75 326.92 10.09 326.53 9.76 Z" />
</g>
<g id="#3b3b3bff">
<path fill="#3b3b3b" opacity="1.00" d=" M 163.09 17.26 L 163.65 17.06 L 163.64 17.66 L 163.14 17.80 L 163.09 17.26 Z" />
</g>
<g id="#855b6bff">
<path fill="#855b6b" opacity="1.00" d=" M 71.68 78.12 C 97.07 51.76 128.18 30.76 162.34 17.53 L 161.87 18.90 C 131.74 30.64 104.14 48.67 80.69 70.81 C 77.27 72.75 75.31 76.50 71.68 78.12 Z" />
</g>
<g id="#835a6aff">
<path fill="#835a6a" opacity="1.00" d=" M 352.66 18.84 C 355.74 19.71 358.61 21.16 361.54 22.43 C 377.78 29.93 393.48 38.81 407.70 49.70 C 405.61 50.09 404.16 48.34 402.64 47.28 C 398.55 43.87 393.62 41.72 389.37 38.53 C 380.28 32.65 370.46 28.04 360.80 23.19 C 358.07 21.81 354.51 21.54 352.66 18.84 Z" />
</g>
<g id="#775864ff">
<path fill="#775864" opacity="1.00" d=" M 407.91 49.86 C 418.56 57.30 428.17 66.12 437.47 75.17 C 433.07 74.17 430.64 70.11 427.51 67.26 C 424.91 64.21 421.21 62.43 418.61 59.39 C 415.33 55.88 410.06 54.36 407.91 49.86 Z" />
</g>
<g id="#7f5a68ff">
<path fill="#7f5a68" opacity="1.00" d=" M 437.94 75.65 C 459.77 97.85 478.03 123.83 490.28 152.51 C 487.85 150.42 486.99 147.22 485.48 144.51 C 481.41 136.10 477.00 127.85 471.83 120.06 C 469.02 114.76 464.90 110.32 461.85 105.17 C 457.80 100.53 454.65 95.14 450.15 90.89 C 447.58 87.18 444.35 84.03 441.09 80.93 C 439.65 79.41 437.49 78.07 437.94 75.65 Z" />
<path fill="#7f5a68" opacity="1.00" d=" M 155.45 149.25 C 161.82 144.07 169.53 140.16 177.68 138.91 C 176.18 140.31 174.14 140.76 172.25 141.35 C 167.48 142.75 162.88 144.91 159.02 148.07 C 157.87 148.98 156.73 150.00 155.23 150.27 L 155.45 149.25 Z" />
</g>
<g id="#815a69ff">
<path fill="#815a69" opacity="1.00" d=" M 18.84 159.29 C 30.65 129.28 48.92 101.89 71.20 78.63 C 71.11 79.16 70.92 80.23 70.83 80.76 C 67.93 84.21 64.31 87.01 61.87 90.87 C 57.80 94.56 55.10 99.39 51.48 103.47 C 39.13 120.18 28.58 138.29 20.59 157.49 C 20.15 157.94 19.28 158.84 18.84 159.29 Z" />
</g>
<g id="#7b7b7bff">
<path fill="#7b7b7b" opacity="1.00" d=" M 182.00 109.97 C 185.36 109.96 188.73 109.95 192.08 110.18 C 188.73 110.72 185.34 111.02 181.95 111.22 L 182.00 109.97 Z" />
</g>
<g id="#835d6cff">
<path fill="#835d6c" opacity="1.00" d=" M 319.89 110.15 C 323.62 110.17 327.57 109.24 331.14 110.64 C 345.81 112.26 360.41 117.63 372.00 126.98 C 376.63 130.06 380.09 134.52 384.11 138.31 L 383.60 139.78 C 378.04 133.23 371.69 127.25 364.28 122.84 C 350.94 114.67 335.30 111.39 319.89 110.15 Z" />
</g>
<g id="#835969ff">
<path fill="#835969" opacity="1.00" d=" M 175.40 111.45 C 177.26 110.53 179.35 110.95 181.29 111.31 C 171.02 112.90 160.90 115.83 151.64 120.61 C 140.17 126.66 130.46 135.87 123.40 146.72 L 123.01 145.37 C 134.66 127.32 154.23 114.84 175.40 111.45 Z" />
</g>
<g id="#9c9c9cff">
<path fill="#9c9c9c" opacity="1.00" d=" M 206.97 135.86 C 223.27 134.33 239.68 135.26 256.03 135.00 C 272.36 135.25 288.75 134.33 305.03 135.86 C 272.35 136.10 239.65 136.11 206.97 135.86 Z" />
<path fill="#9c9c9c" opacity="1.00" d=" M 135.07 218.97 C 135.33 214.68 135.28 210.33 135.95 206.09 C 135.97 239.05 136.18 272.02 135.85 304.98 C 134.89 296.68 135.01 288.30 135.00 279.96 C 135.04 259.63 134.91 239.30 135.07 218.97 Z" />
<path fill="#9c9c9c" opacity="1.00" d=" M 207.01 376.14 C 239.71 375.89 272.42 375.91 305.12 376.13 C 288.47 377.68 271.72 376.74 255.02 377.00 C 239.02 376.75 222.96 377.66 207.01 376.14 Z" />
</g>
<g id="#5c5c5cff">
<path fill="#5c5c5c" opacity="1.00" d=" M 189.87 136.78 C 194.70 135.82 199.67 135.91 204.57 136.08 L 203.70 136.91 C 199.09 137.17 194.47 137.01 189.87 136.78 Z" />
<path fill="#5c5c5c" opacity="1.00" d=" M 189.88 375.22 C 194.48 374.99 199.10 374.82 203.71 375.09 L 204.56 375.92 C 199.66 376.09 194.70 376.19 189.88 375.22 Z" />
<path fill="#5c5c5c" opacity="1.00" d=" M 308.30 375.09 C 312.91 374.81 317.54 375.01 322.15 375.22 C 317.31 376.18 312.33 376.10 307.42 375.92 L 308.30 375.09 Z" />
</g>
<g id="#666666ff">
<path fill="#666666" opacity="1.00" d=" M 307.43 136.09 C 312.57 135.85 317.77 135.84 322.84 136.83 L 322.51 136.85 C 317.78 136.99 313.03 137.17 308.30 136.91 L 307.43 136.09 Z" />
<path fill="#666666" opacity="1.00" d=" M 218.17 509.25 C 220.07 508.99 223.08 507.56 224.16 509.95 C 222.13 510.31 220.04 510.12 218.17 509.25 Z" />
<path fill="#666666" opacity="1.00" d=" M 287.85 509.95 C 288.94 507.57 291.94 508.96 293.85 509.26 C 291.95 510.06 289.88 510.34 287.85 509.95 Z" />
</g>
<g id="#6b5f63ff">
<path fill="#6b5f63" opacity="1.00" d=" M 177.87 138.92 C 181.06 137.42 185.06 136.98 188.63 137.11 C 185.33 138.40 181.47 138.91 177.87 138.92 Z" />
</g>
<g id="#6b5f64ff">
<path fill="#6b5f64" opacity="1.00" d=" M 323.39 137.06 C 326.95 137.03 330.94 137.41 334.11 138.93 C 330.76 139.36 327.63 137.80 324.30 137.84 L 323.39 137.06 Z" />
</g>
<g id="#855d6cff">
<path fill="#855d6c" opacity="1.00" d=" M 334.33 138.92 C 343.23 140.23 351.59 144.73 358.26 150.72 C 359.62 152.02 361.23 153.29 361.83 155.15 C 355.94 150.27 350.10 144.93 342.75 142.36 C 339.95 141.19 336.69 140.97 334.33 138.92 Z" />
</g>
<g id="#8c777fff">
<path fill="#8c777f" opacity="1.00" d=" M 383.78 140.00 C 384.25 140.17 385.17 140.51 385.64 140.68 C 391.65 148.27 395.68 157.25 398.59 166.45 C 400.25 172.17 400.90 178.11 402.05 183.91 C 402.04 187.25 401.66 190.69 402.99 193.87 C 402.97 205.97 403.33 218.11 402.78 230.21 C 402.80 221.46 402.52 212.72 402.02 203.98 C 402.36 181.60 398.03 157.94 383.78 140.00 Z" />
</g>
<g id="#7d5e6aff">
<path fill="#7d5e6a" opacity="1.00" d=" M 121.56 147.56 C 121.98 147.42 122.82 147.12 123.25 146.97 C 116.85 157.38 113.18 169.24 111.32 181.26 C 110.10 178.04 111.90 175.07 112.07 171.89 C 113.94 163.35 117.30 155.16 121.56 147.56 Z" />
</g>
<g id="#9d667bff">
<path fill="#9d667b" opacity="1.00" d=" M 151.16 153.98 C 151.13 152.47 153.47 150.12 155.03 150.34 C 154.80 152.31 153.19 153.94 151.16 153.98 Z" />
</g>
<g id="#775562ff">
<path fill="#775562" opacity="1.00" d=" M 490.37 152.71 C 495.28 163.25 499.25 174.27 502.23 185.51 C 499.92 183.38 499.85 179.95 498.64 177.21 C 496.29 169.44 493.16 161.95 490.08 154.46 L 490.37 152.71 Z" />
</g>
<g id="#7d5d69ff">
<path fill="#7d5d69" opacity="1.00" d=" M 138.90 177.61 C 140.31 168.98 144.45 160.71 150.40 154.29 C 150.24 154.89 149.94 156.10 149.78 156.70 C 146.35 160.93 143.37 165.62 141.78 170.87 C 140.92 173.15 140.70 175.81 138.90 177.61 Z" />
</g>
<g id="#7d5c68ff">
<path fill="#7d5c68" opacity="1.00" d=" M 362.04 155.94 C 362.42 155.97 363.17 156.02 363.55 156.05 C 367.90 162.43 372.04 169.76 373.08 177.65 C 371.16 175.54 370.94 172.57 369.94 170.02 C 368.15 165.33 365.94 160.48 362.07 157.13 C 362.06 156.83 362.05 156.24 362.04 155.94 Z" />
</g>
<g id="#865c6cff">
<path fill="#865c6c" opacity="1.00" d=" M 323.49 162.72 C 331.96 155.97 345.40 159.03 350.56 168.41 C 351.25 170.15 353.07 172.03 351.60 173.94 C 349.68 165.37 340.91 158.85 332.12 160.17 C 324.76 161.26 318.83 167.22 317.15 174.37 C 316.21 169.58 320.20 165.65 323.49 162.72 Z" />
</g>
<g id="#745561ff">
<path fill="#745561" opacity="1.00" d=" M 9.75 185.48 C 12.09 176.61 15.04 167.85 18.78 159.46 C 19.36 162.39 17.54 164.92 16.62 167.55 C 14.64 172.96 13.05 178.51 11.08 183.92 C 10.75 184.31 10.08 185.09 9.75 185.48 Z" />
<path fill="#745561" opacity="1.00" d=" M 304.07 246.96 C 305.60 250.44 304.84 254.31 305.03 257.99 C 304.72 280.05 287.25 300.69 265.36 304.09 C 267.24 302.36 269.85 302.06 272.16 301.22 C 286.93 296.28 298.58 283.51 302.39 268.43 C 305.06 261.56 303.56 254.12 304.07 246.96 Z" />
</g>
<g id="#1b1b1bff">
<path fill="#1b1b1b" opacity="1.00" d=" M 316.97 179.91 C 315.24 179.87 315.25 175.13 316.97 175.10 C 317.04 176.70 317.04 178.30 316.97 179.91 Z" />
</g>
<g id="#7e5867ff">
<path fill="#7e5867" opacity="1.00" d=" M 351.79 174.77 L 352.95 175.11 C 353.89 183.66 348.39 192.42 340.15 195.10 C 339.53 195.03 338.31 194.90 337.69 194.83 C 346.54 192.88 353.35 183.89 351.79 174.77 Z" />
</g>
<g id="#6a5e63ff">
<path fill="#6a5e63" opacity="1.00" d=" M 137.11 188.63 C 136.93 185.00 137.51 181.06 138.91 177.77 C 138.94 181.39 138.43 185.30 137.11 188.63 Z" />
</g>
<g id="#665d60ff">
<path fill="#665d60" opacity="1.00" d=" M 373.07 177.87 C 374.93 181.80 374.78 186.52 375.39 190.84 C 376.23 195.70 376.06 200.64 375.94 205.54 L 375.08 204.73 C 374.53 199.21 375.85 193.53 374.15 188.16 C 374.31 184.64 372.67 181.37 373.07 177.87 Z" />
</g>
<g id="#696164ff">
<path fill="#696164" opacity="1.00" d=" M 241.01 181.00 C 243.32 181.07 245.71 181.11 247.82 180.01 C 253.25 179.93 258.69 180.00 264.12 179.99 C 266.25 181.10 268.66 181.07 271.01 181.00 L 270.99 182.22 C 261.12 180.32 250.79 180.34 240.93 182.22 L 241.01 181.00 Z" />
</g>
<g id="#956a7aff">
<path fill="#956a7a" opacity="1.00" d=" M 317.17 180.67 C 318.81 187.63 324.42 193.20 331.37 194.84 C 326.57 195.80 322.53 191.87 319.65 188.50 C 318.15 186.19 316.23 183.56 317.17 180.67 Z" />
</g>
<g id="#7c7c7cff">
<path fill="#7c7c7c" opacity="1.00" d=" M 109.97 182.01 L 111.22 181.93 C 111.02 185.33 110.72 188.73 110.15 192.09 C 109.92 188.73 109.96 185.37 109.97 182.01 Z" />
</g>
<g id="#815969ff">
<path fill="#815969" opacity="1.00" d=" M 231.87 183.64 C 234.61 182.76 237.40 181.11 240.34 182.34 C 223.01 186.00 207.25 196.05 196.39 210.00 L 195.79 208.43 C 199.73 204.46 203.62 200.44 207.68 196.60 C 215.23 191.42 222.97 186.16 231.87 183.64 Z" />
</g>
<g id="#7f5c69ff">
<path fill="#7f5c69" opacity="1.00" d=" M 271.63 182.34 C 275.24 180.97 278.53 183.40 281.94 184.22 C 285.86 185.23 289.24 187.54 292.91 189.15 C 294.22 189.86 296.25 190.39 296.13 192.29 C 288.60 187.62 280.30 184.22 271.63 182.34 Z" />
<path fill="#7f5c69" opacity="1.00" d=" M 182.34 271.62 C 184.21 280.30 187.63 288.61 192.31 296.15 C 191.88 295.98 191.01 295.63 190.58 295.45 C 187.93 290.52 185.10 285.56 183.63 280.11 C 182.70 277.36 181.17 274.56 182.34 271.62 Z" />
</g>
<g id="#6e5961ff">
<path fill="#6e5961" opacity="1.00" d=" M 5.74 201.56 C 6.70 196.13 8.04 190.74 9.75 185.49 C 10.28 190.45 7.75 195.08 7.00 199.92 C 6.68 200.33 6.05 201.15 5.74 201.56 Z" />
</g>
<g id="#77626aff">
<path fill="#77626a" opacity="1.00" d=" M 502.23 185.52 C 504.94 194.00 506.85 202.75 508.22 211.55 L 507.28 210.63 C 505.94 203.78 504.41 196.95 502.51 190.22 C 501.97 188.70 502.08 187.09 502.23 185.52 Z" />
<path fill="#77626a" opacity="1.00" d=" M 321.76 502.52 C 323.29 501.97 324.91 502.09 326.50 502.23 C 316.02 505.40 305.26 507.96 294.37 509.11 C 295.42 507.56 297.46 508.14 299.02 507.72 C 306.67 506.28 314.27 504.64 321.76 502.52 Z" />
</g>
<g id="#565656ff">
<path fill="#565656" opacity="1.00" d=" M 135.96 205.58 C 136.07 200.37 135.74 195.10 136.76 189.96 C 137.01 193.64 137.03 197.32 137.04 201.01 C 136.81 202.52 137.65 204.65 135.96 205.58 Z" />
</g>
<g id="#8c596cff">
<path fill="#8c596c" opacity="1.00" d=" M 296.15 192.31 C 297.80 191.16 298.87 193.11 300.14 193.76 C 308.04 199.25 314.71 206.35 320.00 214.37 L 319.59 215.66 C 313.53 206.34 305.52 198.30 296.15 192.31 Z" />
</g>
<g id="#6e6e6eff">
<path fill="#6e6e6e" opacity="1.00" d=" M 108.99 193.01 L 110.06 192.98 C 110.10 200.11 109.76 207.23 109.42 214.35 C 108.54 207.28 109.18 200.12 108.99 193.01 Z" />
</g>
<g id="#181818ff">
<path fill="#181818" opacity="1.00" d=" M 332.10 195.02 C 333.69 194.96 335.29 194.96 336.89 195.03 C 336.90 196.75 332.09 196.75 332.10 195.02 Z" />
</g>
<g id="#77686eff">
<path fill="#77686e" opacity="1.00" d=" M 1.84 224.52 C 2.59 216.80 3.83 209.08 5.74 201.56 C 6.54 205.21 4.89 208.68 4.43 212.26 C 3.96 216.09 2.79 219.83 2.91 223.73 L 1.84 224.52 Z" />
</g>
<g id="#775763ff">
<path fill="#775763" opacity="1.00" d=" M 208.05 246.67 C 211.20 224.11 233.27 206.28 255.92 206.97 C 258.96 207.06 262.17 206.58 265.03 207.90 C 258.11 208.49 250.91 206.94 244.24 209.42 C 236.06 211.43 228.53 215.71 222.31 221.33 C 218.04 226.19 214.00 231.45 211.61 237.51 C 210.36 240.54 209.91 243.91 208.05 246.67 Z" />
</g>
<g id="#9e9e9eff">
<path fill="#9e9e9e" opacity="1.00" d=" M 376.14 207.03 C 376.93 213.99 377.00 221.02 377.00 228.02 C 377.00 247.03 377.00 266.04 377.00 285.05 C 377.01 292.01 376.83 298.98 376.09 305.91 C 375.99 272.95 375.88 239.98 376.14 207.03 Z" />
</g>
<g id="#7e5665ff">
<path fill="#7e5665" opacity="1.00" d=" M 265.34 207.90 C 275.93 209.49 285.75 215.41 292.82 223.36 L 292.85 224.38 C 286.64 218.56 279.74 213.02 271.45 210.57 C 269.35 209.84 266.99 209.52 265.34 207.90 Z" />
</g>
<g id="#855567ff">
<path fill="#855567" opacity="1.00" d=" M 192.28 215.85 C 191.60 213.59 194.05 211.87 195.08 210.04 L 196.38 210.02 C 194.99 211.94 193.62 213.89 192.28 215.85 Z" />
</g>
<g id="#776d71ff">
<path fill="#776d71" opacity="1.00" d=" M 508.26 211.72 C 509.22 215.92 509.82 220.22 510.14 224.52 L 509.10 223.72 C 509.38 219.64 507.34 215.79 508.26 211.72 Z" />
</g>
<g id="#805d6aff">
<path fill="#805d6a" opacity="1.00" d=" M 188.22 221.04 C 189.39 219.28 189.61 216.05 192.24 215.91 C 187.57 223.43 184.33 231.73 182.24 240.31 C 182.16 239.47 182.00 237.77 181.92 236.92 C 183.73 231.52 185.29 225.98 188.22 221.04 Z" />
</g>
<g id="#7d5b68ff">
<path fill="#7d5b68" opacity="1.00" d=" M 319.76 215.94 C 320.19 216.10 321.04 216.42 321.47 216.58 C 325.16 222.98 328.00 229.79 330.07 236.88 C 330.00 237.75 329.85 239.51 329.77 240.38 C 327.65 231.80 324.47 223.46 319.76 215.94 Z" />
<path fill="#7d5b68" opacity="1.00" d=" M 271.62 329.66 C 280.24 327.81 288.47 324.40 295.98 319.81 C 296.01 322.42 292.62 322.61 290.92 323.80 C 286.46 326.46 281.50 327.92 276.62 329.61 C 275.03 330.40 273.25 330.02 271.62 329.66 Z" />
</g>
<g id="#606060ff">
<path fill="#606060" opacity="1.00" d=" M 0.77 234.32 C 0.95 231.18 1.10 228.02 1.79 224.94 C 1.87 227.86 2.25 230.81 1.91 233.74 L 0.77 234.32 Z" />
</g>
<g id="#765562ff">
<path fill="#765562" opacity="1.00" d=" M 292.89 224.49 L 293.67 223.99 C 298.55 230.73 303.02 238.20 304.08 246.61 C 302.66 245.14 302.26 243.11 301.66 241.24 C 300.32 236.66 298.23 232.27 295.35 228.46 C 294.44 227.20 293.16 226.10 292.89 224.49 Z" />
</g>
<g id="#636363ff">
<path fill="#636363" opacity="1.00" d=" M 510.19 224.94 C 510.91 228.09 511.10 231.31 511.12 234.53 L 510.05 233.74 C 509.85 230.81 510.08 227.87 510.19 224.94 Z" />
<path fill="#636363" opacity="1.00" d=" M 224.88 510.12 C 227.83 510.15 230.79 509.75 233.73 510.10 L 234.37 511.22 C 231.19 511.02 227.97 510.98 224.88 510.12 Z" />
<path fill="#636363" opacity="1.00" d=" M 278.26 510.05 C 281.20 509.86 284.15 510.10 287.10 510.12 C 283.97 511.00 280.71 511.05 277.49 511.13 L 278.26 510.05 Z" />
</g>
<g id="#bcbcbcff">
<path fill="#bcbcbc" opacity="1.00" d=" M 0.00 234.15 L 0.77 234.32 C 1.87 235.81 1.04 237.74 0.39 239.23 L 0.00 238.86 L 0.00 234.15 Z" />
</g>
<g id="#838383ff">
<path fill="#838383" opacity="1.00" d=" M 511.63 237.85 L 512.00 238.28 L 512.00 242.11 L 511.27 242.15 C 510.59 240.66 510.71 239.22 511.63 237.85 Z" />
</g>
<g id="#6f6f6fff">
<path fill="#6f6f6f" opacity="1.00" d=" M 181.37 245.85 C 180.46 244.67 179.85 240.90 182.04 241.10 C 182.18 242.71 181.87 244.31 181.37 245.85 Z" />
</g>
<g id="#6b6b6bff">
<path fill="#6b6b6b" opacity="1.00" d=" M 329.96 241.11 C 332.16 240.90 331.51 244.68 330.61 245.84 C 330.10 244.31 329.81 242.72 329.96 241.11 Z" />
</g>
<g id="#605a5cff">
<path fill="#605a5c" opacity="1.00" d=" M 179.99 247.01 L 181.12 246.94 C 180.85 254.95 180.36 263.10 182.21 270.98 L 180.96 271.04 C 180.95 268.74 181.43 266.19 179.91 264.24 C 180.08 258.50 179.96 252.75 179.99 247.01 Z" />
</g>
<g id="#505050ff">
<path fill="#505050" opacity="1.00" d=" M 206.98 258.00 C 207.10 254.33 206.55 250.53 207.86 247.00 C 208.07 252.99 208.08 258.98 207.87 264.97 C 207.02 262.74 206.91 260.35 206.98 258.00 Z" />
<path fill="#505050" opacity="1.00" d=" M 506.34 309.97 C 505.72 308.70 504.94 306.17 507.07 305.91 C 507.33 307.31 507.01 308.72 506.34 309.97 Z" />
</g>
<g id="#5c5759ff">
<path fill="#5c5759" opacity="1.00" d=" M 330.86 246.92 L 332.01 247.01 C 331.95 252.75 332.08 258.50 331.98 264.23 C 330.72 266.29 330.99 268.73 331.00 271.04 L 329.79 270.97 C 331.62 263.09 331.18 254.93 330.86 246.92 Z" />
</g>
<g id="#7f5565ff">
<path fill="#7f5565" opacity="1.00" d=" M 207.86 265.36 C 210.50 268.47 210.49 272.90 212.44 276.41 C 214.89 282.35 219.73 286.80 223.02 292.15 C 214.99 285.61 209.62 275.58 207.86 265.36 Z" />
</g>
<g id="#919191ff">
<path fill="#919191" opacity="1.00" d=" M 0.00 271.01 L 0.63 270.76 C 1.41 272.24 1.35 273.68 0.46 275.09 L 0.00 274.68 L 0.00 271.01 Z" />
</g>
<g id="#7c5967ff">
<path fill="#7c5967" opacity="1.00" d=" M 319.72 296.09 C 324.39 288.57 327.78 280.26 329.66 271.60 C 331.04 275.21 328.60 278.49 327.79 281.90 C 326.78 285.85 324.45 289.25 322.83 292.95 C 322.12 294.23 321.62 296.28 319.72 296.09 Z" />
<path fill="#7c5967" opacity="1.00" d=" M 215.95 319.75 C 223.47 324.40 231.75 327.77 240.39 329.66 C 236.73 331.04 233.40 328.54 229.94 327.74 C 226.07 326.72 222.73 324.44 219.09 322.85 C 217.82 322.14 215.74 321.64 215.95 319.75 Z" />
</g>
<g id="#b6b6b6ff">
<path fill="#b6b6b6" opacity="1.00" d=" M 511.59 272.76 L 512.00 273.14 L 512.00 276.95 L 511.15 276.85 C 510.59 275.42 510.74 274.06 511.59 272.76 Z" />
</g>
<g id="#716a6dff">
<path fill="#716a6d" opacity="1.00" d=" M 0.90 277.43 L 1.95 278.27 C 2.21 281.33 1.57 284.51 2.55 287.49 C 3.37 289.67 2.92 292.00 2.75 294.26 C 1.82 288.70 0.92 283.08 0.90 277.43 Z" />
</g>
<g id="#646464ff">
<path fill="#646464" opacity="1.00" d=" M 510.10 287.14 C 510.59 283.99 508.68 279.90 511.12 277.40 C 511.06 280.67 510.98 283.97 510.10 287.14 Z" />
</g>
<g id="#676767ff">
<path fill="#676767" opacity="1.00" d=" M 509.27 293.84 C 508.97 291.93 507.55 288.91 509.95 287.83 C 510.34 289.86 510.05 291.93 509.27 293.84 Z" />
</g>
<g id="#6b555dff">
<path fill="#6b555d" opacity="1.00" d=" M 223.20 292.55 C 223.83 292.71 225.07 293.02 225.69 293.18 C 230.91 297.86 237.40 300.84 244.15 302.58 C 250.84 305.06 258.06 303.53 265.01 304.08 C 260.90 305.72 256.38 304.76 252.08 305.02 C 241.48 304.06 231.04 299.86 223.20 292.55 Z" />
</g>
<g id="#74656bff">
<path fill="#74656b" opacity="1.00" d=" M 2.79 294.47 L 3.78 295.35 C 3.95 300.45 6.52 305.29 5.73 310.41 C 4.35 305.18 3.41 299.83 2.79 294.47 Z" />
</g>
<g id="#74686dff">
<path fill="#74686d" opacity="1.00" d=" M 507.59 299.78 C 508.24 298.01 507.38 295.62 509.13 294.38 C 508.78 298.13 508.35 301.93 507.18 305.53 C 506.98 303.59 506.97 301.64 507.59 299.78 Z" />
</g>
<g id="#747474ff">
<path fill="#747474" opacity="1.00" d=" M 401.94 319.02 C 401.88 311.24 402.26 303.48 402.64 295.71 C 403.40 303.45 402.85 311.27 403.00 319.04 L 401.94 319.02 Z" />
</g>
<g id="#8a576aff">
<path fill="#8a576a" opacity="1.00" d=" M 192.32 296.16 C 198.34 305.54 206.39 313.59 215.76 319.63 L 214.33 319.98 C 205.46 314.13 197.81 306.53 192.00 297.63 L 192.32 296.16 Z" />
</g>
<g id="#8a576bff">
<path fill="#8a576b" opacity="1.00" d=" M 296.30 319.60 C 305.61 313.57 313.64 305.58 319.63 296.23 L 319.97 297.67 C 314.70 305.69 308.01 312.76 300.14 318.25 C 298.91 318.84 297.85 320.81 296.30 319.60 Z" />
</g>
<g id="#645b5eff">
<path fill="#645b5e" opacity="1.00" d=" M 136.07 306.41 L 136.92 307.28 C 137.46 312.81 136.17 318.50 137.86 323.89 C 137.68 327.37 139.32 330.61 138.93 334.07 C 137.13 330.46 137.22 325.96 136.71 321.93 C 135.80 316.81 135.91 311.59 136.07 306.41 Z" />
</g>
<g id="#605b5dff">
<path fill="#605b5d" opacity="1.00" d=" M 375.09 307.29 L 375.93 306.41 C 376.10 311.57 376.16 316.77 375.28 321.88 C 374.86 324.32 375.36 326.96 374.20 329.23 C 374.13 327.45 373.75 325.65 374.10 323.89 C 375.93 318.54 374.49 312.80 375.09 307.29 Z" />
</g>
<g id="#6f5a62ff">
<path fill="#6f5a62" opacity="1.00" d=" M 5.74 310.47 C 6.06 310.87 6.69 311.68 7.01 312.08 C 7.77 316.91 10.27 321.54 9.76 326.50 C 8.04 321.26 6.72 315.89 5.74 310.47 Z" />
</g>
<g id="#735d66ff">
<path fill="#735d66" opacity="1.00" d=" M 504.98 312.08 C 505.28 311.65 505.89 310.78 506.19 310.35 C 505.38 315.82 503.93 321.20 502.23 326.46 C 501.75 321.51 504.22 316.90 504.98 312.08 Z" />
</g>
<g id="#7e777aff">
<path fill="#7e777a" opacity="1.00" d=" M 110.15 319.77 C 111.00 325.18 111.12 330.67 112.27 336.04 L 111.00 336.01 C 111.13 333.66 110.95 331.34 110.03 329.17 C 109.78 326.04 110.01 322.89 110.15 319.77 Z" />
</g>
<g id="#7d7578ff">
<path fill="#7d7578" opacity="1.00" d=" M 399.75 336.00 C 400.85 330.67 400.98 325.23 401.85 319.87 C 402.01 322.94 402.16 326.03 402.00 329.10 C 400.97 331.27 400.92 333.65 401.00 336.00 L 399.75 336.00 Z" />
</g>
<g id="#755662ff">
<path fill="#755662" opacity="1.00" d=" M 9.77 326.54 C 10.10 326.92 10.75 327.69 11.07 328.07 C 13.06 333.50 14.65 339.08 16.65 344.51 C 17.58 347.14 19.39 349.68 18.79 352.61 C 15.09 344.19 12.09 335.44 9.77 326.54 Z" />
<path fill="#755662" opacity="1.00" d=" M 344.46 495.37 C 347.08 494.44 349.60 492.64 352.51 493.22 C 344.12 496.94 335.38 499.93 326.50 502.23 C 326.89 501.90 327.68 501.25 328.07 500.93 C 333.48 498.94 339.04 497.36 344.46 495.37 Z" />
</g>
<g id="#785764ff">
<path fill="#785764" opacity="1.00" d=" M 498.43 335.40 C 499.74 332.45 499.84 328.81 502.23 326.46 C 499.20 337.77 495.28 348.92 490.24 359.49 C 490.23 358.94 490.20 357.85 490.19 357.30 C 493.10 350.06 496.19 342.88 498.43 335.40 Z" />
</g>
<g id="#675f62ff">
<path fill="#675f62" opacity="1.00" d=" M 240.93 329.77 C 250.80 331.67 261.14 331.68 271.02 329.78 L 271.00 331.00 C 268.66 330.93 266.26 330.87 264.13 332.01 C 258.68 332.09 253.22 331.89 247.77 332.09 C 245.77 330.70 243.30 331.02 241.01 331.00 L 240.93 329.77 Z" />
</g>
<g id="#4f4f4fff">
<path fill="#4f4f4f" opacity="1.00" d=" M 373.02 333.71 C 372.78 332.41 372.42 330.74 373.67 329.81 C 374.50 330.75 374.46 333.64 373.02 333.71 Z" />
</g>
<g id="#7c5a67ff">
<path fill="#7c5a67" opacity="1.00" d=" M 138.91 334.36 C 140.82 336.45 141.06 339.40 142.04 341.95 C 142.80 344.57 144.60 346.80 144.99 349.54 L 144.25 349.27 C 141.81 344.61 139.51 339.63 138.91 334.36 Z" />
</g>
<g id="#855f6eff">
<path fill="#855f6e" opacity="1.00" d=" M 370.43 340.42 C 371.13 338.31 371.51 335.97 373.11 334.30 C 371.41 344.61 365.81 354.37 358.01 361.29 C 358.97 358.66 360.93 356.60 362.70 354.49 C 366.26 350.44 368.88 345.58 370.43 340.42 Z" />
</g>
<g id="#805465ff">
<path fill="#805465" opacity="1.00" d=" M 112.37 336.64 C 114.72 347.71 118.65 358.62 125.22 367.92 C 129.25 373.85 134.37 378.96 139.79 383.63 L 138.30 384.09 C 133.20 379.05 127.89 374.15 124.07 368.02 C 118.28 359.98 114.68 350.55 112.23 341.02 C 111.79 339.57 111.83 338.11 112.37 336.64 Z" />
</g>
<g id="#7b5262ff">
<path fill="#7b5262" opacity="1.00" d=" M 372.07 383.66 C 386.73 372.05 396.15 354.79 399.65 336.56 C 400.85 339.61 399.06 342.51 398.61 345.50 C 395.99 353.15 393.15 360.87 388.30 367.43 C 384.41 373.81 378.96 378.91 373.67 384.13 L 372.07 383.66 Z" />
</g>
<g id="#875e6eff">
<path fill="#875e6e" opacity="1.00" d=" M 145.02 349.60 C 147.41 351.46 148.78 354.21 150.70 356.50 C 151.90 358.02 153.35 359.41 154.05 361.28 C 150.39 358.50 147.59 354.66 145.16 350.80 L 145.02 349.60 Z" />
</g>
<g id="#805968ff">
<path fill="#805968" opacity="1.00" d=" M 18.79 352.61 C 20.16 353.48 20.93 354.91 21.46 356.39 C 23.58 362.62 27.14 368.20 29.84 374.18 C 31.31 377.68 34.21 380.43 35.10 384.19 L 35.18 384.44 C 32.76 382.83 31.87 379.94 30.42 377.58 C 26.17 369.45 21.91 361.26 18.79 352.61 Z" />
</g>
<g id="#845c6bff">
<path fill="#845c6b" opacity="1.00" d=" M 488.12 362.14 C 488.61 361.20 489.27 360.40 490.13 359.75 C 486.64 368.63 481.95 377.00 477.21 385.27 C 476.38 386.74 475.61 388.32 474.19 389.34 C 474.14 386.90 476.05 385.18 477.13 383.17 C 481.39 376.49 484.47 369.16 488.12 362.14 Z" />
</g>
<g id="#7e5e6aff">
<path fill="#7e5e6a" opacity="1.00" d=" M 154.59 361.84 C 155.12 361.91 156.19 362.04 156.72 362.10 C 161.17 366.08 166.53 369.04 172.28 370.66 C 174.12 371.28 176.22 371.59 177.61 373.10 C 169.14 371.66 160.93 367.69 154.59 361.84 Z" />
</g>
<g id="#825e6cff">
<path fill="#825e6c" opacity="1.00" d=" M 355.26 362.10 C 355.74 362.07 356.68 362.02 357.16 361.99 C 350.83 367.66 342.81 371.79 334.39 373.09 C 335.99 371.43 338.37 371.15 340.45 370.43 C 345.93 368.81 350.99 365.88 355.26 362.10 Z" />
</g>
<g id="#6b6064ff">
<path fill="#6b6064" opacity="1.00" d=" M 177.80 373.10 C 181.43 373.06 185.32 373.60 188.66 374.89 C 185.04 375.07 181.09 374.50 177.80 373.10 Z" />
</g>
<g id="#6c6065ff">
<path fill="#6c6065" opacity="1.00" d=" M 324.32 374.16 C 327.64 374.21 330.76 372.64 334.10 373.08 C 330.95 374.59 326.95 374.96 323.40 374.93 L 324.32 374.16 Z" />
</g>
<g id="#825868ff">
<path fill="#825868" opacity="1.00" d=" M 139.97 383.77 C 148.07 390.21 157.52 394.76 167.43 397.67 C 164.47 398.81 161.74 396.91 159.09 395.86 C 153.88 394.03 148.91 391.50 144.44 388.24 C 142.74 387.04 140.17 386.19 139.97 383.77 Z" />
</g>
<g id="#7e5766ff">
<path fill="#7e5766" opacity="1.00" d=" M 344.59 397.67 C 354.50 394.79 363.91 390.16 371.99 383.72 C 371.90 386.18 369.21 387.00 367.52 388.25 C 363.22 391.31 358.53 393.91 353.51 395.60 C 350.64 396.65 347.78 398.85 344.59 397.67 Z" />
</g>
<g id="#795261ff">
<path fill="#795261" opacity="1.00" d=" M 35.22 384.53 C 38.06 387.58 39.69 391.54 42.13 394.92 C 44.20 399.50 48.96 402.76 49.84 407.83 C 45.84 402.83 42.34 397.47 38.94 392.05 C 37.46 389.64 35.57 387.38 34.96 384.54 L 35.22 384.53 Z" />
</g>
<g id="#7b5765ff">
<path fill="#7b5765" opacity="1.00" d=" M 467.26 398.98 C 469.77 396.17 470.53 391.95 473.87 389.93 C 470.94 396.42 466.44 402.15 462.14 407.80 C 462.55 404.32 465.43 401.81 467.26 398.98 Z" />
</g>
<g id="#78676dff">
<path fill="#78676d" opacity="1.00" d=" M 168.00 397.83 C 172.38 399.08 176.86 399.88 181.35 400.66 C 176.84 401.70 172.40 399.80 168.00 398.89 L 168.00 397.83 Z" />
</g>
<g id="#7f7176ff">
<path fill="#7f7176" opacity="1.00" d=" M 319.87 401.82 C 328.03 400.91 336.22 400.11 344.13 397.80 C 344.30 399.54 342.05 399.24 340.96 399.76 C 333.95 400.89 327.06 402.84 319.87 401.82 Z" />
</g>
<g id="#787878ff">
<path fill="#787878" opacity="1.00" d=" M 182.02 400.77 C 185.40 400.99 188.77 401.28 192.12 401.82 C 188.75 402.06 185.37 402.05 181.99 402.02 L 182.02 400.77 Z" />
</g>
<g id="#7a5865ff">
<path fill="#7a5865" opacity="1.00" d=" M 49.85 407.85 C 55.02 410.63 56.71 416.96 61.29 420.50 C 64.47 425.00 68.48 428.76 72.42 432.58 C 73.90 433.77 74.44 435.59 75.05 437.31 C 66.03 428.06 57.23 418.48 49.85 407.85 Z" />
<path fill="#7a5865" opacity="1.00" d=" M 450.69 420.53 C 455.27 416.97 457.00 410.67 462.13 407.84 C 454.79 418.50 445.94 428.06 436.95 437.35 C 437.55 435.88 437.82 434.16 439.10 433.08 C 443.13 429.04 447.41 425.22 450.69 420.53 Z" />
</g>
<g id="#6b575fff">
<path fill="#6b575f" opacity="1.00" d=" M 75.64 437.88 C 76.17 437.95 77.23 438.09 77.75 438.16 C 81.13 441.49 85.17 444.47 87.44 448.72 C 83.22 445.42 79.61 441.45 75.64 437.88 Z" />
</g>
<g id="#67545bff">
<path fill="#67545b" opacity="1.00" d=" M 430.61 441.61 C 432.31 440.07 433.69 437.53 436.36 437.93 C 432.36 441.50 428.71 445.45 424.51 448.80 C 425.75 445.80 428.50 443.94 430.61 441.61 Z" />
</g>
<g id="#6d535dff">
<path fill="#6d535d" opacity="1.00" d=" M 87.69 448.93 C 91.05 448.74 93.03 452.20 94.50 454.72 C 92.11 452.94 89.90 450.93 87.69 448.93 Z" />
</g>
<g id="#6a505aff">
<path fill="#6a505a" opacity="1.00" d=" M 417.47 454.77 C 418.97 452.25 420.95 448.71 424.34 448.95 C 422.11 450.95 419.87 452.96 417.47 454.77 Z" />
</g>
<g id="#815b6aff">
<path fill="#815b6a" opacity="1.00" d=" M 94.76 454.94 C 95.25 455.01 96.21 455.15 96.69 455.23 C 101.20 458.39 105.18 462.28 110.02 465.01 C 116.83 470.48 124.68 474.40 132.04 479.07 C 146.92 487.32 162.63 494.04 178.86 499.17 C 181.11 500.07 183.85 500.24 185.52 502.22 C 152.41 493.11 121.29 476.72 94.76 454.94 Z" />
</g>
<g id="#7a5362ff">
<path fill="#7a5362" opacity="1.00" d=" M 400.32 466.25 C 405.44 462.81 410.29 458.98 415.20 455.25 C 415.71 455.17 416.75 455.01 417.27 454.93 C 411.02 460.21 404.35 464.97 397.56 469.53 C 394.93 471.10 392.56 473.23 389.54 474.05 L 389.54 473.78 C 392.58 470.51 397.03 469.22 400.32 466.25 Z" />
</g>
<g id="#835b6aff">
<path fill="#835b6a" opacity="1.00" d=" M 376.12 481.20 C 380.66 479.10 384.51 475.64 389.20 473.88 L 389.47 473.81 C 388.71 475.61 386.84 476.30 385.30 477.22 C 374.83 483.23 364.08 488.93 352.75 493.14 C 353.38 491.95 354.54 491.25 355.76 490.79 C 362.87 488.31 369.28 484.30 376.12 481.20 Z" />
</g>
<g id="#735e66ff">
<path fill="#735e66" opacity="1.00" d=" M 185.53 502.22 C 189.45 501.61 193.06 503.62 196.85 504.24 C 198.47 504.74 200.52 504.63 201.54 506.26 C 196.13 505.25 190.75 503.97 185.53 502.22 Z" />
</g>
<g id="#6f6367ff">
<path fill="#6f6367" opacity="1.00" d=" M 201.59 506.27 C 204.93 505.89 208.83 506.27 211.64 508.13 C 208.25 507.78 204.87 507.20 201.59 506.27 Z" />
</g>
<g id="#656565ff">
<path fill="#656565" opacity="1.00" d=" M 212.11 508.29 C 213.72 507.83 216.35 506.75 217.19 508.93 C 215.46 509.38 213.69 509.02 212.11 508.29 Z" />
</g>
<g id="#bfbfbfff">
<path fill="#bfbfbf" opacity="1.00" d=" M 234.37 511.22 C 235.83 510.11 237.72 510.95 239.20 511.59 L 238.83 512.00 L 234.16 512.00 L 234.37 511.22 Z" />
</g>
<g id="#3a3a3aff">
<path fill="#3a3a3a" opacity="1.00" d=" M 239.20 511.59 C 242.78 511.18 246.39 510.94 250.01 510.95 C 251.49 511.17 253.58 510.37 254.51 512.00 L 238.83 512.00 L 239.20 511.59 Z" />
</g>
<g id="#2a2a2aff">
<path fill="#2a2a2a" opacity="1.00" d=" M 257.29 512.00 C 261.05 509.75 265.87 511.50 270.05 511.39 L 270.45 512.00 L 257.29 512.00 Z" />
</g>
<g id="#8b8b8bff">
<path fill="#8b8b8b" opacity="1.00" d=" M 270.05 511.39 C 271.62 510.43 273.51 510.69 275.10 511.44 L 275.30 512.00 L 270.45 512.00 L 270.05 511.39 Z" />
</g>
</svg>
