<?xml version="1.0" encoding="UTF-8" ?>
<!DOCTYPE svg PUBLIC "-//W3C//DTD SVG 1.1//EN" "http://www.w3.org/Graphics/SVG/1.1/DTD/svg11.dtd">
<svg width="512pt" height="512pt" viewBox="0 0 512 512" version="1.1" xmlns="http://www.w3.org/2000/svg">
<g id="#ffffffff">
</g>
<g id="#bdbdbdff">
<path fill="#bdbdbd" opacity="1.00" d=" M 234.80 0.00 L 239.33 0.00 L 239.14 0.64 C 237.62 1.26 235.81 1.65 234.34 0.70 L 234.80 0.00 Z" />
<path fill="#bdbdbd" opacity="1.00" d=" M 0.00 273.43 L 0.43 273.05 C 1.33 274.27 2.04 276.28 0.78 277.53 L 0.00 277.26 L 0.00 273.43 Z" />
</g>
<g id="#585858ff">
<path fill="#585858" opacity="1.00" d=" M 239.33 0.00 L 246.89 0.00 L 246.89 0.80 C 244.30 1.12 241.71 0.90 239.14 0.64 L 239.33 0.00 Z" />
<path fill="#585858" opacity="1.00" d=" M 112.46 287.03 C 113.01 287.93 113.20 288.91 113.02 289.97 L 112.24 289.98 L 111.71 289.06 C 111.90 288.55 112.27 287.53 112.46 287.03 Z" />
<path fill="#585858" opacity="1.00" d=" M 164.02 392.52 C 164.94 392.03 165.91 391.83 166.94 391.93 L 166.98 392.74 L 166.06 393.30 C 165.55 393.10 164.53 392.71 164.02 392.52 Z" />
</g>
<g id="#141414ff">
<path fill="#141414" opacity="1.00" d=" M 246.89 0.00 L 254.19 0.00 C 252.50 2.13 249.21 0.74 246.89 0.80 L 246.89 0.00 Z" />
</g>
<g id="#e36394ff">
<path fill="#e36394" opacity="1.00" d=" M 254.19 0.00 L 257.46 0.00 C 261.26 2.31 266.48 0.47 270.82 0.56 C 272.50 1.39 274.48 1.38 276.16 0.55 C 276.74 0.67 277.89 0.89 278.47 1.01 L 279.27 1.94 C 281.89 2.14 284.51 1.92 287.13 1.87 L 287.83 2.03 C 288.84 4.44 291.97 2.99 293.86 2.72 L 294.35 2.86 L 295.31 3.80 C 305.02 4.97 314.49 7.60 323.97 9.95 C 324.61 9.90 325.88 9.79 326.51 9.74 L 326.55 9.75 C 328.30 11.94 331.51 11.91 333.93 13.08 C 335.34 13.39 337.30 14.88 338.47 13.33 C 338.56 13.37 338.75 13.46 338.84 13.50 L 339.19 14.83 C 343.83 15.61 347.80 19.19 352.60 18.79 L 352.61 18.79 C 354.61 21.71 358.52 21.85 361.41 23.45 C 368.61 27.31 376.19 30.45 383.10 34.82 C 388.01 37.06 392.03 40.78 396.81 43.25 C 400.32 45.04 403.03 47.99 406.44 49.92 L 407.73 49.74 L 407.82 49.84 C 410.68 54.98 417.01 56.66 420.50 61.30 C 425.29 64.50 429.01 68.92 433.10 72.92 C 434.19 74.21 435.92 74.45 437.40 75.06 C 437.53 75.19 437.79 75.46 437.92 75.59 C 437.61 79.01 441.25 80.58 443.11 82.91 C 447.17 86.26 449.72 90.92 453.59 94.46 C 457.10 99.58 461.49 104.05 464.64 109.42 C 473.23 120.99 480.27 133.60 486.51 146.58 C 487.66 148.59 488.25 151.11 490.26 152.50 C 490.26 152.66 490.26 152.99 490.26 153.16 C 489.75 155.38 490.97 158.00 493.00 159.04 L 493.09 159.27 C 492.93 160.94 493.22 162.61 493.94 164.13 C 496.97 170.75 498.49 177.95 501.30 184.65 L 502.24 185.45 L 502.25 185.49 C 502.20 186.14 502.11 187.44 502.06 188.09 C 504.37 197.55 507.01 206.99 508.20 216.68 L 509.13 217.64 L 509.27 218.13 C 509.01 220.01 507.54 223.17 509.96 224.16 L 510.12 224.86 C 510.09 227.82 509.85 230.79 510.05 233.76 L 511.13 234.53 C 511.47 236.33 511.77 238.14 511.90 239.97 C 510.50 245.53 511.13 251.29 511.00 256.96 C 510.88 262.21 511.06 267.47 511.59 272.70 C 510.77 274.02 510.62 275.41 511.15 276.85 L 511.12 277.43 C 508.66 279.85 510.61 284.02 510.11 287.16 L 509.96 287.84 C 507.54 288.82 509.00 291.97 509.27 293.84 L 509.12 294.35 C 507.46 295.35 508.22 297.47 507.77 299.03 C 507.28 302.84 505.43 306.54 506.26 310.44 L 506.25 310.49 C 505.94 310.89 505.32 311.67 505.01 312.07 C 504.24 316.90 501.75 321.54 502.24 326.47 L 502.23 326.50 C 500.88 327.28 500.65 328.90 500.14 330.23 C 498.65 334.74 497.16 339.25 495.65 343.76 C 494.75 346.63 492.58 349.31 493.22 352.48 L 493.14 352.67 C 491.25 354.41 489.52 356.93 490.22 359.63 L 490.21 359.66 C 488.96 360.28 488.41 361.59 487.81 362.75 C 485.52 367.44 483.12 372.07 480.87 376.78 C 478.86 380.79 476.03 384.38 474.10 388.41 L 474.33 389.87 L 474.32 389.87 C 471.48 390.67 470.69 393.93 469.20 396.14 C 464.42 403.30 459.09 410.10 454.01 417.07 C 452.40 419.17 450.08 420.65 448.75 422.98 C 445.49 428.29 438.68 431.06 436.99 437.32 C 436.90 437.41 436.71 437.59 436.62 437.68 C 433.62 437.55 432.08 440.33 430.14 442.09 C 428.20 444.22 425.65 445.92 424.60 448.71 C 424.56 448.74 424.48 448.82 424.43 448.85 C 421.02 448.76 418.94 452.20 417.44 454.81 C 417.38 454.86 417.25 454.97 417.18 455.02 C 416.70 455.07 415.73 455.15 415.24 455.20 C 409.30 459.98 403.05 464.36 396.86 468.79 C 394.45 470.46 390.82 471.25 389.86 474.33 L 389.84 474.34 C 388.18 473.44 386.81 474.94 385.51 475.68 C 378.97 480.07 371.77 483.28 364.77 486.83 C 362.95 487.77 360.85 488.43 359.63 490.19 L 359.60 490.20 C 356.92 489.55 354.36 491.26 352.64 493.15 L 352.54 493.19 C 349.88 492.66 347.52 494.18 345.16 495.11 C 339.30 497.39 333.15 498.88 327.35 501.30 L 326.54 502.24 L 326.50 502.25 C 322.84 501.54 319.45 503.48 315.91 504.04 C 310.38 505.67 304.67 506.48 299.07 507.77 C 297.52 508.23 295.37 507.42 294.39 509.11 L 293.88 509.25 C 291.99 509.02 288.82 507.54 287.83 509.96 L 287.15 510.11 C 283.96 510.53 280.04 508.83 277.36 510.99 L 276.76 511.33 C 275.46 510.62 274.13 510.61 272.78 511.31 C 270.23 511.11 267.68 510.89 265.14 511.20 C 262.79 511.25 259.51 509.87 257.80 512.00 L 254.56 512.00 C 253.53 510.45 251.51 511.13 250.00 510.95 C 246.40 510.94 242.81 511.18 239.24 511.59 C 237.74 510.96 235.86 510.18 234.36 511.19 L 233.76 510.09 C 230.80 509.77 227.83 510.13 224.88 510.11 L 224.18 509.95 C 223.12 507.56 220.02 509.03 218.12 509.24 L 217.19 508.94 C 216.41 506.74 213.71 507.86 212.11 508.28 L 211.65 508.13 C 210.64 506.67 208.72 507.03 207.24 506.59 C 200.75 505.47 194.44 503.52 188.03 502.05 C 187.41 502.10 186.16 502.20 185.54 502.25 L 185.47 502.24 C 184.73 500.87 183.14 500.64 181.85 500.14 C 167.71 495.60 153.69 490.50 140.57 483.49 C 132.12 479.67 124.53 474.27 116.46 469.74 C 109.88 464.86 102.93 460.52 96.73 455.13 C 96.24 455.10 95.27 455.03 94.78 455.00 C 94.73 454.95 94.61 454.85 94.55 454.80 C 93.06 452.30 91.07 448.71 87.70 448.97 C 87.66 448.94 87.58 448.87 87.54 448.83 C 86.07 445.40 82.79 443.33 80.42 440.58 C 78.65 438.51 76.26 437.20 73.83 436.07 L 73.69 435.92 L 74.08 434.41 C 70.15 429.83 65.10 426.25 61.86 421.09 C 57.67 417.51 55.15 412.53 51.43 408.54 C 40.28 393.15 30.55 376.74 22.59 359.47 C 20.77 354.66 18.85 349.89 16.90 345.14 C 14.62 339.28 13.14 333.12 10.71 327.34 L 9.74 326.50 L 9.74 326.50 C 10.18 321.31 7.67 316.37 6.72 311.33 L 5.74 310.50 L 5.73 310.46 C 6.56 305.32 3.81 300.46 3.81 295.31 L 2.85 294.36 L 2.71 293.85 C 2.99 291.96 4.45 288.82 2.03 287.83 L 1.88 287.15 C 1.86 284.18 2.24 281.20 1.90 278.24 L 0.78 277.53 C 2.04 276.28 1.33 274.27 0.43 273.05 C 1.27 261.81 1.36 250.46 0.40 239.23 C 1.04 237.74 1.82 235.86 0.81 234.36 L 1.91 233.76 C 2.23 230.80 1.89 227.83 1.81 224.88 L 1.86 224.48 L 2.92 223.77 C 3.04 218.19 4.36 212.74 5.43 207.28 C 6.09 205.42 6.06 203.45 5.72 201.53 L 5.74 201.45 L 6.72 200.68 C 7.64 195.64 10.19 190.71 9.73 185.55 L 9.76 185.43 L 10.71 184.66 C 13.68 177.42 15.43 169.70 18.65 162.55 C 23.44 149.45 30.03 137.10 36.90 125.01 C 39.19 121.56 41.68 118.22 43.59 114.54 C 48.13 107.55 53.46 101.17 58.39 94.46 C 60.55 92.24 62.78 90.08 64.42 87.42 C 66.52 84.38 71.04 82.71 71.18 78.63 C 71.30 78.50 71.55 78.23 71.68 78.10 C 75.09 76.64 76.84 73.08 80.02 71.28 C 83.31 69.28 85.30 65.80 88.49 63.67 C 91.79 61.60 94.00 58.22 97.38 56.23 C 116.98 40.86 138.58 27.84 161.89 18.90 L 162.35 17.52 C 162.53 17.45 162.89 17.32 163.07 17.26 L 163.13 17.83 L 163.67 17.69 L 163.67 17.05 L 164.30 16.83 C 168.36 17.09 171.98 14.77 175.83 13.81 L 176.42 12.48 C 176.58 12.41 176.90 12.28 177.07 12.22 C 177.54 12.36 178.49 12.65 178.97 12.80 L 178.90 11.99 C 179.09 11.85 179.48 11.55 179.67 11.40 C 181.07 12.93 184.27 11.71 185.03 9.97 L 185.36 9.85 C 189.06 10.38 192.48 8.58 196.06 7.97 C 200.84 6.54 205.78 5.71 210.68 4.76 L 211.55 3.80 L 211.76 3.76 C 215.85 4.71 219.64 2.47 223.76 2.92 L 224.51 1.86 L 224.93 1.80 C 227.78 1.60 231.23 3.05 233.66 1.06 L 234.34 0.70 C 235.81 1.65 237.62 1.26 239.14 0.64 C 241.71 0.90 244.30 1.12 246.89 0.80 C 249.21 0.74 252.50 2.13 254.19 0.00 M 249.80 98.91 L 249.67 99.22 C 246.96 98.39 243.86 99.29 241.01 98.99 L 240.94 100.13 L 240.24 100.23 C 235.00 99.11 230.17 101.65 225.00 102.06 L 224.97 103.20 L 224.38 103.35 C 223.00 102.79 221.68 102.83 220.40 103.46 C 213.98 104.82 207.91 107.39 201.83 109.78 C 200.82 110.55 198.77 110.58 198.83 112.25 L 198.61 112.34 C 196.81 110.93 195.13 112.91 193.49 113.47 C 185.46 117.22 178.22 122.28 170.88 127.20 C 169.09 128.35 166.63 129.38 166.54 131.88 C 166.47 131.94 166.32 132.06 166.24 132.12 C 165.73 132.09 164.72 132.04 164.21 132.01 C 162.57 133.86 160.13 135.28 159.54 137.82 C 159.47 137.88 159.32 138.01 159.24 138.08 C 158.73 138.07 157.70 138.04 157.18 138.03 C 153.86 141.43 150.27 144.62 147.20 148.23 C 146.13 151.08 143.02 152.34 141.75 155.04 C 140.98 156.75 139.21 157.66 138.21 159.21 C 136.66 161.64 135.25 164.20 133.14 166.21 C 131.52 170.31 128.21 173.41 126.50 177.45 C 124.17 182.41 121.49 187.20 119.21 192.18 C 118.83 193.99 117.18 195.77 118.32 197.66 L 118.24 197.87 L 117.19 198.13 C 115.66 200.85 115.18 204.01 113.91 206.85 C 114.02 207.52 114.26 208.84 114.37 209.50 L 114.23 209.99 L 113.08 210.00 C 112.78 212.53 111.12 214.75 112.35 217.36 L 112.20 217.98 L 111.06 218.00 C 110.46 223.76 108.20 229.27 109.24 235.15 L 109.10 235.91 L 107.99 236.01 C 107.96 246.00 108.06 255.99 107.94 265.98 C 107.76 267.39 108.65 268.60 108.95 269.92 C 109.14 272.31 108.47 274.86 109.71 277.06 C 110.53 278.35 108.92 281.24 111.22 281.21 L 111.42 282.10 C 110.38 282.95 110.05 286.35 112.01 285.96 L 112.46 287.03 C 112.27 287.53 111.90 288.55 111.71 289.06 L 112.24 289.98 L 113.02 289.97 L 113.42 291.00 C 112.09 292.55 113.19 296.63 115.03 296.94 L 115.33 297.99 C 115.29 298.47 115.19 299.42 115.15 299.90 L 116.00 300.01 L 116.29 301.00 L 115.78 301.87 L 116.18 302.89 L 117.07 302.96 L 117.22 303.38 C 116.47 306.24 118.46 308.92 119.45 311.52 C 120.51 315.43 122.82 318.82 124.48 322.49 C 125.64 324.49 126.23 326.90 127.93 328.54 C 126.99 331.39 125.47 334.46 126.39 337.43 L 126.24 337.98 L 125.10 338.01 C 124.65 341.56 122.37 344.93 123.37 348.45 L 123.23 348.97 L 122.10 348.99 C 121.63 352.51 119.35 355.90 120.37 359.41 L 120.22 359.98 L 119.10 360.01 C 118.53 363.52 116.50 366.90 117.25 370.46 L 117.06 371.11 C 115.21 371.27 114.04 375.56 115.50 377.03 L 115.27 377.82 C 113.10 377.57 114.47 380.34 113.10 381.23 C 113.45 383.87 110.94 385.91 112.38 388.51 L 112.24 389.00 L 111.09 389.00 C 110.96 391.09 109.62 392.87 109.80 395.02 C 108.66 396.33 108.77 397.90 109.38 399.48 L 109.25 399.98 L 108.07 400.00 C 108.12 401.21 107.79 402.28 107.07 403.23 C 107.03 404.91 107.09 406.70 105.80 408.00 C 110.95 408.11 115.85 405.97 120.88 404.83 L 121.26 403.78 L 122.09 403.52 C 122.60 403.72 123.62 404.11 124.12 404.30 L 125.00 403.71 L 124.94 402.90 L 125.48 402.74 C 126.15 402.83 127.51 403.00 128.18 403.09 C 131.94 401.53 136.05 401.22 139.88 399.83 L 140.20 398.80 L 141.07 398.54 C 141.57 398.73 142.58 399.12 143.08 399.31 L 143.99 398.76 L 143.98 397.98 L 145.01 397.56 C 145.53 397.74 146.57 398.09 147.09 398.27 L 147.99 397.71 L 147.93 396.92 L 148.54 396.74 C 149.98 397.25 151.34 397.16 152.62 396.47 C 156.09 395.67 159.53 394.74 163.00 393.90 L 163.04 392.80 L 164.02 392.52 C 164.53 392.71 165.55 393.10 166.06 393.30 L 166.98 392.74 L 166.94 391.93 L 167.54 391.75 C 168.19 391.84 169.48 392.01 170.13 392.10 C 173.88 390.52 178.04 390.24 181.88 388.84 L 182.20 387.81 L 183.07 387.57 C 183.57 387.76 184.58 388.13 185.09 388.31 L 185.98 387.72 L 185.93 386.90 L 186.75 386.59 C 191.13 388.80 195.45 391.16 199.93 393.17 L 201.67 392.75 L 202.09 392.90 C 201.44 394.82 204.98 395.89 206.11 394.54 L 206.82 394.80 C 207.04 396.75 209.56 396.67 210.95 397.36 C 213.49 397.88 215.83 399.90 218.50 398.65 L 219.00 398.79 L 219.00 399.91 C 222.88 400.42 226.48 402.79 230.42 401.74 L 231.09 401.92 C 230.75 404.15 234.63 403.47 235.83 402.67 L 237.04 403.02 C 237.24 405.30 241.19 404.35 242.72 403.76 L 243.76 403.95 L 244.12 404.96 C 247.78 405.13 251.45 405.06 255.11 404.82 C 256.76 404.98 258.43 405.06 260.10 405.02 C 259.55 406.63 263.45 406.66 262.93 405.01 C 268.82 404.77 274.67 404.02 280.54 403.65 C 282.40 403.94 284.28 404.20 286.18 404.07 C 287.91 402.91 289.99 402.93 292.01 402.99 L 292.02 401.76 L 292.60 401.65 C 296.51 402.87 300.12 400.37 304.00 399.91 L 304.00 398.77 L 304.47 398.63 C 305.15 398.74 306.50 398.98 307.18 399.09 C 323.21 393.81 338.57 386.33 352.09 376.20 C 353.33 375.43 355.13 374.48 354.97 372.75 L 355.23 372.55 L 356.64 373.18 C 358.35 371.37 360.04 369.52 362.33 368.44 C 367.55 363.22 372.78 358.01 377.99 352.79 C 377.98 352.29 377.96 351.30 377.95 350.80 C 378.04 350.70 378.21 350.49 378.29 350.39 C 379.77 350.27 380.75 349.12 381.71 348.15 C 386.16 342.34 390.14 336.16 394.24 330.07 C 395.89 327.07 396.93 323.73 399.25 321.13 C 401.51 314.65 405.15 308.74 407.06 302.11 C 407.68 299.23 409.95 296.47 408.63 293.47 L 408.77 293.01 L 409.93 293.00 C 409.92 291.64 410.33 290.38 411.17 289.32 C 411.06 288.39 410.84 286.53 410.73 285.60 L 410.91 284.91 C 412.91 285.48 412.63 281.99 411.62 281.11 L 412.00 279.95 C 414.13 280.13 413.47 276.38 412.68 275.20 L 413.04 273.97 C 415.22 273.66 414.33 269.62 413.57 268.15 C 413.66 267.62 413.84 266.55 413.93 266.01 L 415.04 266.04 C 414.95 256.69 415.01 247.35 415.01 238.00 L 413.95 237.96 L 413.85 237.08 C 413.87 234.48 414.46 231.74 413.79 229.21 C 412.42 227.18 413.63 224.59 412.52 222.49 C 411.62 217.32 410.36 212.15 408.83 207.10 L 407.81 206.80 L 407.61 206.00 L 408.19 205.12 L 407.86 204.08 L 407.00 203.99 L 406.72 203.05 L 407.21 202.15 L 406.82 201.11 L 405.95 201.05 L 405.76 200.52 L 406.08 198.97 C 401.15 184.34 393.14 171.01 384.27 158.52 C 381.35 155.78 379.61 152.11 376.36 149.66 C 373.72 145.10 369.41 141.83 365.82 138.03 C 365.29 138.04 364.24 138.06 363.71 138.07 C 363.63 138.00 363.47 137.86 363.39 137.79 C 362.36 133.89 358.21 132.33 355.49 129.78 C 345.08 122.09 334.14 114.72 321.93 110.19 C 320.45 109.75 319.02 107.86 317.45 109.36 L 317.19 109.26 L 316.89 108.17 C 313.20 106.26 309.02 105.50 305.18 103.92 C 304.51 104.00 303.18 104.16 302.51 104.24 L 301.95 104.06 L 301.99 103.26 L 301.10 102.69 C 300.59 102.88 299.59 103.25 299.08 103.44 L 298.26 103.23 L 297.89 102.11 C 292.82 101.59 287.99 99.10 282.81 100.24 L 282.06 100.13 L 282.00 99.00 C 279.26 98.93 276.52 98.92 273.80 99.23 C 273.36 99.19 272.48 99.10 272.04 99.05 L 271.99 98.00 C 266.33 97.98 260.67 98.05 255.02 97.98 C 253.25 98.06 251.26 97.59 249.80 98.91 Z" />
<path fill="#e36394" opacity="1.00" d=" M 250.25 125.36 C 257.28 123.29 265.18 123.65 272.35 125.08 L 273.27 125.91 C 277.69 125.45 281.80 127.47 286.18 126.89 L 286.85 127.26 C 287.58 128.25 288.54 128.48 289.74 127.94 L 290.29 127.79 C 291.13 129.29 292.99 129.03 294.38 129.56 C 301.48 131.84 308.55 134.32 315.51 136.88 L 315.90 137.29 C 315.91 137.47 315.93 137.83 315.95 138.01 C 321.27 140.10 326.30 142.84 330.91 146.23 C 338.17 150.74 344.85 156.10 350.62 162.42 C 353.23 164.56 355.06 167.97 358.35 169.07 L 358.98 169.23 L 358.99 169.81 C 359.00 170.30 359.02 171.29 359.04 171.78 C 361.17 173.70 362.91 175.96 364.33 178.44 C 368.51 183.63 371.62 189.57 374.48 195.56 C 378.20 202.60 381.41 209.99 383.20 217.77 C 383.57 219.19 383.87 220.78 385.18 221.68 L 385.17 221.79 C 385.11 222.64 384.98 224.34 384.92 225.18 C 386.49 227.10 385.06 230.20 387.15 231.65 L 387.08 232.30 C 387.01 234.25 386.06 236.65 387.64 238.24 L 388.13 238.94 C 387.85 246.29 388.05 253.66 388.01 261.02 C 387.48 266.43 385.73 271.76 386.17 277.23 L 386.18 277.35 C 384.24 278.92 384.62 281.80 383.79 283.98 C 381.76 290.68 379.55 297.34 376.82 303.80 C 369.88 318.55 360.29 332.00 348.81 343.51 C 348.61 343.94 348.22 344.81 348.02 345.24 L 347.86 345.73 L 347.67 345.75 C 347.05 345.82 345.81 345.96 345.19 346.03 C 337.16 354.12 327.34 360.27 317.08 365.17 C 307.91 370.09 297.90 373.25 287.80 375.60 C 281.32 376.82 274.89 378.36 268.26 378.08 L 267.37 378.92 C 263.82 379.45 260.13 379.50 256.59 378.92 L 255.74 378.08 C 252.21 377.81 248.67 378.09 245.14 378.13 L 244.61 377.99 L 243.73 377.19 C 235.61 375.87 227.54 374.02 219.82 371.15 C 218.31 370.72 216.82 369.88 215.22 370.11 L 214.62 370.14 C 211.11 366.49 205.61 366.38 201.78 363.27 C 199.25 361.72 196.45 360.62 194.10 358.77 C 191.70 356.92 188.33 358.39 186.30 360.10 L 185.70 359.98 C 184.39 359.46 183.46 359.74 182.91 360.80 L 182.12 360.87 C 178.97 361.01 176.00 362.11 172.95 362.78 C 171.02 363.31 168.77 363.48 167.35 365.09 L 166.67 364.96 C 165.35 364.45 164.44 364.74 163.94 365.82 L 163.15 365.89 C 156.92 366.58 150.96 368.79 144.85 370.13 C 145.40 368.00 146.29 365.90 145.85 363.66 L 145.85 363.64 C 148.20 360.74 148.82 356.53 148.88 352.87 L 148.88 352.65 C 151.20 349.68 151.85 345.47 151.90 341.76 L 151.90 341.64 C 154.24 338.63 154.83 334.42 154.93 330.69 L 154.93 330.63 C 156.72 328.68 157.48 325.78 156.93 323.20 C 155.57 320.32 153.25 318.02 151.83 315.16 C 147.96 307.22 143.58 299.46 141.07 290.93 C 140.52 289.35 140.25 287.52 138.90 286.38 L 138.90 286.11 C 138.90 283.47 138.72 280.37 136.87 278.34 L 136.97 277.75 C 137.22 276.42 137.61 274.70 136.31 273.77 L 135.98 272.66 C 135.94 270.71 136.99 268.29 135.36 266.74 L 134.81 266.06 C 135.09 256.66 135.16 247.23 134.77 237.83 L 135.34 237.22 C 136.96 235.70 135.96 233.24 135.95 231.33 L 135.87 230.63 C 137.47 229.74 136.91 227.71 137.39 226.25 C 138.53 221.82 139.46 217.32 141.08 213.04 C 141.87 210.60 143.05 208.22 143.01 205.61 L 143.02 205.55 C 146.03 202.26 146.84 197.75 148.77 193.88 C 153.62 186.38 157.50 178.11 163.96 171.79 C 164.03 171.15 164.17 169.89 164.24 169.25 L 164.24 169.22 L 164.53 169.14 C 167.11 168.57 168.50 166.03 170.40 164.40 C 174.40 160.69 177.77 156.28 182.36 153.25 C 186.38 149.46 191.38 146.97 195.82 143.71 C 200.08 140.59 205.37 139.27 209.60 136.11 L 209.77 136.07 C 217.10 133.67 224.24 130.57 231.76 128.75 L 232.65 127.80 L 233.25 127.95 C 234.59 128.53 235.53 128.26 236.07 127.14 L 237.32 127.10 C 238.95 127.03 241.00 127.79 242.24 126.33 L 243.32 125.96 C 245.59 125.87 248.36 127.09 250.25 125.36 M 195.58 185.59 C 194.03 189.23 190.01 191.00 188.80 194.83 C 187.66 198.42 183.93 201.52 185.23 205.51 L 185.05 206.08 C 183.07 205.60 183.36 209.02 184.37 209.91 L 184.08 210.78 L 183.04 211.10 C 182.89 215.16 183.09 219.23 182.89 223.30 C 183.62 224.42 184.00 225.67 183.95 227.02 C 184.73 231.72 186.06 236.37 188.50 240.52 C 189.06 244.38 192.34 246.87 193.48 250.52 C 197.04 255.96 201.03 261.12 204.74 266.44 C 207.15 268.69 208.12 272.70 211.76 273.38 C 211.84 273.46 211.99 273.64 212.06 273.73 C 212.05 274.26 212.03 275.30 212.02 275.82 C 218.46 282.24 224.89 288.67 231.32 295.10 L 232.79 294.61 L 233.04 294.79 C 234.61 299.56 240.26 300.93 243.56 304.26 C 252.23 310.58 262.10 315.03 271.96 319.10 C 273.47 319.52 274.99 320.60 276.61 319.78 L 277.03 319.94 L 277.12 320.83 L 278.16 321.20 L 279.03 320.67 L 279.99 321.01 L 280.11 321.86 C 280.59 321.81 281.55 321.70 282.03 321.65 L 282.98 322.00 L 283.09 322.86 L 284.12 323.19 L 284.98 322.63 L 285.81 322.86 C 287.28 325.39 291.47 325.18 294.20 324.80 L 294.95 324.91 L 295.01 326.01 C 299.34 325.97 303.66 325.98 307.99 326.01 L 308.03 324.92 L 308.82 324.82 C 310.70 324.95 312.70 325.42 314.52 324.64 C 319.48 322.85 324.23 320.38 328.50 317.26 C 330.94 314.80 333.42 312.37 335.84 309.89 C 337.11 307.35 338.61 304.45 337.76 301.55 L 337.95 300.90 C 340.13 301.17 339.57 297.40 338.69 296.24 L 338.96 295.25 L 339.95 294.88 C 340.20 291.88 340.62 288.11 337.82 286.13 C 330.07 282.27 322.33 278.38 314.60 274.49 C 309.10 272.92 304.21 268.76 298.12 269.98 C 296.11 271.74 295.24 274.36 293.25 276.15 C 292.04 279.19 288.67 280.56 287.43 283.58 C 285.75 285.79 283.55 287.59 281.61 289.58 C 279.36 290.98 277.19 288.61 275.20 287.78 C 266.27 284.95 258.86 279.06 251.00 274.16 C 248.83 272.85 247.76 269.19 244.75 270.05 C 244.61 269.92 244.33 269.67 244.18 269.54 C 243.81 266.83 240.78 265.82 239.57 263.58 C 238.35 260.65 235.34 259.15 233.62 256.59 C 230.57 251.32 225.81 247.01 224.02 241.04 C 222.57 237.25 229.37 236.39 227.64 233.08 L 227.66 233.05 C 232.00 232.00 232.90 226.58 236.00 223.86 C 236.01 222.51 236.01 221.17 236.01 219.83 L 235.71 218.86 C 237.01 217.49 236.05 213.65 233.90 214.10 L 233.77 213.74 C 234.30 212.35 234.12 211.06 233.21 209.87 C 229.43 201.50 226.49 192.78 222.54 184.47 C 221.78 182.15 218.88 180.35 216.55 181.34 C 213.40 181.29 210.25 181.11 207.10 181.09 C 202.56 179.82 198.78 182.85 195.58 185.59 Z" />
</g>
<g id="#2d2d2dff">
<path fill="#2d2d2d" opacity="1.00" d=" M 257.46 0.00 L 271.13 0.00 L 270.82 0.56 C 266.48 0.47 261.26 2.31 257.46 0.00 Z" />
</g>
<g id="#999999ff">
<path fill="#999999" opacity="1.00" d=" M 271.13 0.00 L 275.86 0.00 L 276.16 0.55 C 274.48 1.38 272.50 1.39 270.82 0.56 L 271.13 0.00 Z" />
</g>
<g id="#6d6d6dff">
<path fill="#6d6d6d" opacity="1.00" d=" M 224.93 1.80 C 227.78 1.08 230.72 0.82 233.66 1.06 C 231.23 3.05 227.78 1.60 224.93 1.80 Z" />
<path fill="#6d6d6d" opacity="1.00" d=" M 278.47 1.01 C 281.38 0.90 284.32 1.01 287.13 1.87 C 284.51 1.92 281.89 2.14 279.27 1.94 L 278.47 1.01 Z" />
</g>
<g id="#766c70ff">
<path fill="#766c70" opacity="1.00" d=" M 211.76 3.76 C 215.94 2.80 220.21 2.10 224.51 1.86 L 223.76 2.92 C 219.64 2.47 215.85 4.71 211.76 3.76 Z" />
</g>
<g id="#626262ff">
<path fill="#626262" opacity="1.00" d=" M 287.83 2.03 C 289.86 1.69 291.95 1.92 293.86 2.72 C 291.97 2.99 288.84 4.44 287.83 2.03 Z" />
<path fill="#626262" opacity="1.00" d=" M 2.03 287.83 C 4.45 288.82 2.99 291.96 2.71 293.85 C 1.92 291.94 1.69 289.86 2.03 287.83 Z" />
<path fill="#626262" opacity="1.00" d=" M 182.91 360.80 C 183.46 359.74 184.39 359.46 185.70 359.98 C 185.30 361.29 184.37 361.56 182.91 360.80 Z" />
</g>
<g id="#745f67ff">
<path fill="#745f67" opacity="1.00" d=" M 294.35 2.86 C 305.24 4.07 316.02 6.59 326.51 9.74 C 325.88 9.79 324.61 9.90 323.97 9.95 C 314.49 7.60 305.02 4.97 295.31 3.80 L 294.35 2.86 Z" />
<path fill="#745f67" opacity="1.00" d=" M 125.10 338.01 L 126.24 337.98 C 125.28 341.47 124.33 344.96 123.37 348.45 C 122.37 344.93 124.65 341.56 125.10 338.01 Z" />
</g>
<g id="#766169ff">
<path fill="#766169" opacity="1.00" d=" M 185.36 9.85 C 193.86 7.02 202.70 5.18 211.55 3.80 L 210.68 4.76 C 205.78 5.71 200.84 6.54 196.06 7.97 C 192.48 8.58 189.06 10.38 185.36 9.85 Z" />
</g>
<g id="#705b63ff">
<path fill="#705b63" opacity="1.00" d=" M 179.67 11.40 C 181.25 10.41 183.22 10.27 185.03 9.97 C 184.27 11.71 181.07 12.93 179.67 11.40 Z" />
</g>
<g id="#6d515cff">
<path fill="#6d515c" opacity="1.00" d=" M 326.55 9.75 C 330.58 10.71 334.52 12.05 338.47 13.33 C 337.30 14.88 335.34 13.39 333.93 13.08 C 331.51 11.91 328.30 11.94 326.55 9.75 Z" />
</g>
<g id="#292929ff">
<path fill="#292929" opacity="1.00" d=" M 177.07 12.22 C 177.52 12.16 178.44 12.05 178.90 11.99 L 178.97 12.80 C 178.49 12.65 177.54 12.36 177.07 12.22 Z" />
</g>
<g id="#715560ff">
<path fill="#715560" opacity="1.00" d=" M 164.30 16.83 C 168.24 15.12 172.31 13.71 176.42 12.48 L 175.83 13.81 C 171.98 14.77 168.36 17.09 164.30 16.83 Z" />
</g>
<g id="#6f515dff">
<path fill="#6f515d" opacity="1.00" d=" M 338.84 13.50 C 343.47 15.15 348.17 16.64 352.60 18.79 C 347.80 19.19 343.83 15.61 339.19 14.83 L 338.84 13.50 Z" />
</g>
<g id="#3b3b3bff">
<path fill="#3b3b3b" opacity="1.00" d=" M 163.07 17.26 L 163.67 17.05 L 163.67 17.69 L 163.13 17.83 L 163.07 17.26 Z" />
</g>
<g id="#855b6bff">
<path fill="#855b6b" opacity="1.00" d=" M 71.68 78.10 C 97.10 51.76 128.19 30.76 162.35 17.52 L 161.89 18.90 C 138.58 27.84 116.98 40.86 97.38 56.23 C 94.00 58.22 91.79 61.60 88.49 63.67 C 85.30 65.80 83.31 69.28 80.02 71.28 C 76.84 73.08 75.09 76.64 71.68 78.10 Z" />
</g>
<g id="#835a6aff">
<path fill="#835a6a" opacity="1.00" d=" M 352.61 18.79 C 360.85 21.68 368.61 25.78 376.37 29.74 C 387.22 35.73 397.97 42.07 407.73 49.74 L 406.44 49.92 C 403.03 47.99 400.32 45.04 396.81 43.25 C 392.03 40.78 388.01 37.06 383.10 34.82 C 376.19 30.45 368.61 27.31 361.41 23.45 C 358.52 21.85 354.61 21.71 352.61 18.79 Z" />
</g>
<g id="#775864ff">
<path fill="#775864" opacity="1.00" d=" M 407.82 49.84 C 418.52 57.18 428.05 66.09 437.40 75.06 C 435.92 74.45 434.19 74.21 433.10 72.92 C 429.01 68.92 425.29 64.50 420.50 61.30 C 417.01 56.66 410.68 54.98 407.82 49.84 Z" />
<path fill="#775864" opacity="1.00" d=" M 493.09 159.27 C 496.94 167.67 499.83 176.53 502.24 185.45 L 501.30 184.65 C 498.49 177.95 496.97 170.75 493.94 164.13 C 493.22 162.61 492.93 160.94 493.09 159.27 Z" />
</g>
<g id="#7f5a68ff">
<path fill="#7f5a68" opacity="1.00" d=" M 437.92 75.59 C 459.71 97.84 478.04 123.79 490.26 152.50 C 488.25 151.11 487.66 148.59 486.51 146.58 C 480.27 133.60 473.23 120.99 464.64 109.42 C 461.49 104.05 457.10 99.58 453.59 94.46 C 449.72 90.92 447.17 86.26 443.11 82.91 C 441.25 80.58 437.61 79.01 437.92 75.59 Z" />
</g>
<g id="#7e5967ff">
<path fill="#7e5967" opacity="1.00" d=" M 9.76 185.43 C 20.81 145.42 42.49 108.54 71.18 78.63 C 71.04 82.71 66.52 84.38 64.42 87.42 C 62.78 90.08 60.55 92.24 58.39 94.46 C 53.46 101.17 48.13 107.55 43.59 114.54 C 41.68 118.22 39.19 121.56 36.90 125.01 C 30.03 137.10 23.44 149.45 18.65 162.55 C 15.43 169.70 13.68 177.42 10.71 184.66 L 9.76 185.43 Z" />
</g>
<g id="#414141ff">
<path fill="#414141" opacity="1.00" d=" M 249.80 98.91 C 251.26 97.59 253.25 98.06 255.02 97.98 C 260.67 98.05 266.33 97.98 271.99 98.00 L 272.04 99.05 C 264.62 98.70 257.21 99.07 249.80 98.91 Z" />
</g>
<g id="#878787ff">
<path fill="#878787" opacity="1.00" d=" M 241.01 98.99 C 243.86 99.29 246.96 98.39 249.67 99.22 C 249.56 99.47 249.35 99.98 249.24 100.23 C 246.55 99.30 243.70 100.08 240.94 100.13 L 241.01 98.99 Z" />
</g>
<g id="#797979ff">
<path fill="#797979" opacity="1.00" d=" M 273.80 99.23 C 276.52 98.92 279.26 98.93 282.00 99.00 L 282.06 100.13 C 279.29 100.01 276.52 99.74 273.80 99.23 Z" />
</g>
<g id="#7e6f75ff">
<path fill="#7e6f75" opacity="1.00" d=" M 225.00 102.06 C 230.17 101.65 235.00 99.11 240.24 100.23 C 235.13 101.12 230.02 102.03 224.97 103.20 L 225.00 102.06 Z" />
</g>
<g id="#7d6e73ff">
<path fill="#7d6e73" opacity="1.00" d=" M 282.81 100.24 C 287.99 99.10 292.82 101.59 297.89 102.11 L 298.26 103.23 C 293.14 102.08 287.98 101.13 282.81 100.24 Z" />
</g>
<g id="#7f606cff">
<path fill="#7f606c" opacity="1.00" d=" M 220.40 103.46 C 221.68 102.83 223.00 102.79 224.38 103.35 C 215.63 105.61 207.10 108.63 198.83 112.25 C 198.77 110.58 200.82 110.55 201.83 109.78 C 207.91 107.39 213.98 104.82 220.40 103.46 Z" />
</g>
<g id="#5e5e5eff">
<path fill="#5e5e5e" opacity="1.00" d=" M 299.08 103.44 C 299.59 103.25 300.59 102.88 301.10 102.69 L 301.99 103.26 L 301.95 104.06 C 300.92 104.18 299.97 103.97 299.08 103.44 Z" />
<path fill="#5e5e5e" opacity="1.00" d=" M 116.29 301.00 C 116.48 301.49 116.87 302.47 117.07 302.96 L 116.18 302.89 L 115.78 301.87 L 116.29 301.00 Z" />
</g>
<g id="#7c606bff">
<path fill="#7c606b" opacity="1.00" d=" M 302.51 104.24 C 303.18 104.16 304.51 104.00 305.18 103.92 C 309.02 105.50 313.20 106.26 316.89 108.17 L 317.19 109.26 C 312.38 107.35 307.41 105.91 302.51 104.24 Z" />
</g>
<g id="#825667ff">
<path fill="#825667" opacity="1.00" d=" M 317.45 109.36 C 319.02 107.86 320.45 109.75 321.93 110.19 C 334.14 114.72 345.08 122.09 355.49 129.78 C 358.21 132.33 362.36 133.89 363.39 137.79 C 349.93 125.67 334.29 116.01 317.45 109.36 Z" />
</g>
<g id="#794f5fff">
<path fill="#794f5f" opacity="1.00" d=" M 193.49 113.47 C 195.13 112.91 196.81 110.93 198.61 112.34 C 187.16 117.47 176.40 124.12 166.54 131.88 C 166.63 129.38 169.09 128.35 170.88 127.20 C 178.22 122.28 185.46 117.22 193.49 113.47 Z" />
</g>
<g id="#616161ff">
<path fill="#616161" opacity="1.00" d=" M 243.32 125.96 C 244.82 124.69 248.29 124.47 250.25 125.36 C 248.36 127.09 245.59 125.87 243.32 125.96 Z" />
<path fill="#616161" opacity="1.00" d=" M 0.78 277.53 L 1.90 278.24 C 2.24 281.20 1.86 284.18 1.88 287.15 C 0.96 284.02 1.03 280.75 0.78 277.53 Z" />
<path fill="#616161" opacity="1.00" d=" M 111.42 282.10 C 111.87 283.33 112.22 284.62 112.01 285.96 C 110.05 286.35 110.38 282.95 111.42 282.10 Z" />
</g>
<g id="#746b6fff">
<path fill="#746b6f" opacity="1.00" d=" M 272.35 125.08 C 276.99 124.81 281.75 125.68 286.18 126.89 C 281.80 127.47 277.69 125.45 273.27 125.91 L 272.35 125.08 Z" />
</g>
<g id="#656565ff">
<path fill="#656565" opacity="1.00" d=" M 237.32 127.10 C 237.74 125.60 240.98 125.50 242.24 126.33 C 241.00 127.79 238.95 127.03 237.32 127.10 Z" />
<path fill="#656565" opacity="1.00" d=" M 413.95 237.96 L 415.01 238.00 C 415.01 247.35 414.95 256.69 415.04 266.04 L 413.93 266.01 C 414.34 256.66 414.36 247.31 413.95 237.96 Z" />
<path fill="#656565" opacity="1.00" d=" M 183.07 387.57 C 183.95 387.06 184.91 386.83 185.93 386.90 L 185.98 387.72 L 185.09 388.31 C 184.58 388.13 183.57 387.76 183.07 387.57 Z" />
<path fill="#656565" opacity="1.00" d=" M 212.11 508.28 C 213.71 507.86 216.41 506.74 217.19 508.94 C 215.46 509.37 213.69 509.03 212.11 508.28 Z" />
</g>
<g id="#5c5c5cff">
<path fill="#5c5c5c" opacity="1.00" d=" M 233.25 127.95 C 233.68 126.71 234.62 126.45 236.07 127.14 C 235.53 128.26 234.59 128.53 233.25 127.95 Z" />
<path fill="#5c5c5c" opacity="1.00" d=" M 405.95 201.05 L 406.82 201.11 L 407.21 202.15 L 406.72 203.05 C 406.52 202.55 406.14 201.55 405.95 201.05 Z" />
<path fill="#5c5c5c" opacity="1.00" d=" M 122.09 403.52 C 122.98 403.02 123.93 402.82 124.94 402.90 L 125.00 403.71 L 124.12 404.30 C 123.62 404.11 122.60 403.72 122.09 403.52 Z" />
</g>
<g id="#5d5d5dff">
<path fill="#5d5d5d" opacity="1.00" d=" M 286.85 127.26 C 288.32 126.41 289.28 126.64 289.74 127.94 C 288.54 128.48 287.58 128.25 286.85 127.26 Z" />
<path fill="#5d5d5d" opacity="1.00" d=" M 387.08 232.30 L 387.40 232.26 C 388.09 234.04 388.61 236.47 387.64 238.24 C 386.06 236.65 387.01 234.25 387.08 232.30 Z" />
<path fill="#5d5d5d" opacity="1.00" d=" M 115.33 297.99 C 115.50 298.49 115.83 299.51 116.00 300.01 L 115.15 299.90 C 115.19 299.42 115.29 298.47 115.33 297.99 Z" />
</g>
<g id="#765763ff">
<path fill="#765763" opacity="1.00" d=" M 209.08 135.27 C 216.84 132.53 224.46 129.01 232.65 127.80 L 231.76 128.75 C 224.24 130.57 217.10 133.67 209.77 136.07 L 209.08 135.27 Z" />
</g>
<g id="#7b5b67ff">
<path fill="#7b5b67" opacity="1.00" d=" M 290.29 127.79 C 298.96 129.21 307.23 132.55 315.27 136.05 C 315.33 136.26 315.45 136.67 315.51 136.88 C 308.55 134.32 301.48 131.84 294.38 129.56 C 292.99 129.03 291.13 129.29 290.29 127.79 Z" />
</g>
<g id="#785260ff">
<path fill="#785260" opacity="1.00" d=" M 164.21 132.01 C 164.72 132.04 165.73 132.09 166.24 132.12 C 163.92 133.92 161.77 135.91 159.54 137.82 C 160.13 135.28 162.57 133.86 164.21 132.01 Z" />
</g>
<g id="#805666ff">
<path fill="#805666" opacity="1.00" d=" M 164.53 169.14 C 176.31 155.03 191.39 143.72 208.06 136.00 L 209.60 136.11 C 205.37 139.27 200.08 140.59 195.82 143.71 C 191.38 146.97 186.38 149.46 182.36 153.25 C 177.77 156.28 174.40 160.69 170.40 164.40 C 168.50 166.03 167.11 168.57 164.53 169.14 Z" />
</g>
<g id="#815264ff">
<path fill="#815264" opacity="1.00" d=" M 315.90 137.29 C 316.14 137.10 316.63 136.73 316.87 136.54 C 319.17 138.26 321.86 139.31 324.32 140.77 C 337.18 148.13 348.88 157.66 358.35 169.07 C 355.06 167.97 353.23 164.56 350.62 162.42 C 344.85 156.10 338.17 150.74 330.91 146.23 C 326.30 142.84 321.27 140.10 315.95 138.01 C 315.93 137.83 315.91 137.47 315.90 137.29 Z" />
</g>
<g id="#7d5766ff">
<path fill="#7d5766" opacity="1.00" d=" M 157.18 138.03 C 157.70 138.04 158.73 138.07 159.24 138.08 C 141.11 154.29 127.02 174.95 118.32 197.66 C 117.18 195.77 118.83 193.99 119.21 192.18 C 121.49 187.20 124.17 182.41 126.50 177.45 C 128.21 173.41 131.52 170.31 133.14 166.21 C 135.25 164.20 136.66 161.64 138.21 159.21 C 139.21 157.66 140.98 156.75 141.75 155.04 C 143.02 152.34 146.13 151.08 147.20 148.23 C 150.27 144.62 153.86 141.43 157.18 138.03 Z" />
</g>
<g id="#7e5665ff">
<path fill="#7e5665" opacity="1.00" d=" M 363.71 138.07 C 364.24 138.06 365.29 138.04 365.82 138.03 C 369.41 141.83 373.72 145.10 376.36 149.66 C 379.61 152.11 381.35 155.78 384.27 158.52 C 393.14 171.01 401.15 184.34 406.08 198.97 L 405.76 200.52 C 397.02 176.74 382.66 154.96 363.71 138.07 Z" />
</g>
<g id="#785462ff">
<path fill="#785462" opacity="1.00" d=" M 490.26 153.16 C 492.04 154.44 492.40 157.02 493.00 159.04 C 490.97 158.00 489.75 155.38 490.26 153.16 Z" />
</g>
<g id="#825a69ff">
<path fill="#825a69" opacity="1.00" d=" M 144.30 201.30 C 149.27 189.69 156.09 178.89 164.24 169.25 C 164.17 169.89 164.03 171.15 163.96 171.79 C 157.50 178.11 153.62 186.38 148.77 193.88 C 146.84 197.75 146.03 202.26 143.02 205.55 C 142.90 204.00 143.76 202.68 144.30 201.30 Z" />
<path fill="#825a69" opacity="1.00" d=" M 385.51 475.68 C 386.81 474.94 388.18 473.44 389.84 474.34 C 380.24 480.43 370.16 485.89 359.63 490.19 C 360.85 488.43 362.95 487.77 364.77 486.83 C 371.77 483.28 378.97 480.07 385.51 475.68 Z" />
</g>
<g id="#7d5665ff">
<path fill="#7d5665" opacity="1.00" d=" M 358.99 169.81 C 371.70 184.62 381.01 202.60 385.18 221.68 C 383.87 220.78 383.57 219.19 383.20 217.77 C 381.41 209.99 378.20 202.60 374.48 195.56 C 371.62 189.57 368.51 183.63 364.33 178.44 C 362.91 175.96 361.17 173.70 359.04 171.78 C 359.02 171.29 359.00 170.30 358.99 169.81 Z" />
</g>
<g id="#84626fff">
<path fill="#84626f" opacity="1.00" d=" M 195.58 185.59 C 198.78 182.85 202.56 179.82 207.10 181.09 C 202.57 181.56 198.46 183.94 195.71 187.55 C 190.83 192.60 187.39 198.85 185.23 205.51 C 183.93 201.52 187.66 198.42 188.80 194.83 C 190.01 191.00 194.03 189.23 195.58 185.59 Z" />
</g>
<g id="#7e5b68ff">
<path fill="#7e5b68" opacity="1.00" d=" M 216.55 181.34 C 218.88 180.35 221.78 182.15 222.54 184.47 C 226.49 192.78 229.43 201.50 233.21 209.87 C 234.12 211.06 234.30 212.35 233.77 213.74 C 230.05 205.47 226.75 197.02 223.27 188.66 C 221.98 185.53 220.30 181.91 216.55 181.34 Z" />
</g>
<g id="#6e5961ff">
<path fill="#6e5961" opacity="1.00" d=" M 5.74 201.45 C 6.74 196.08 8.03 190.74 9.73 185.55 C 10.19 190.71 7.64 195.64 6.72 200.68 L 5.74 201.45 Z" />
<path fill="#6e5961" opacity="1.00" d=" M 111.09 389.00 L 112.24 389.00 C 111.30 392.50 110.36 395.99 109.38 399.48 C 108.77 397.90 108.66 396.33 109.80 395.02 C 109.62 392.87 110.96 391.09 111.09 389.00 Z" />
</g>
<g id="#7a656dff">
<path fill="#7a656d" opacity="1.00" d=" M 502.25 185.49 C 505.42 195.98 507.88 206.76 509.13 217.64 L 508.20 216.68 C 507.01 206.99 504.37 197.55 502.06 188.09 C 502.11 187.44 502.20 186.14 502.25 185.49 Z" />
</g>
<g id="#70545fff">
<path fill="#70545f" opacity="1.00" d=" M 117.19 198.13 L 118.24 197.87 C 116.81 201.70 115.52 205.58 114.37 209.50 C 114.26 208.84 114.02 207.52 113.91 206.85 C 115.18 204.01 115.66 200.85 117.19 198.13 Z" />
</g>
<g id="#78686eff">
<path fill="#78686e" opacity="1.00" d=" M 1.86 224.48 C 2.55 216.76 3.88 209.06 5.72 201.53 C 6.06 203.45 6.09 205.42 5.43 207.28 C 4.36 212.74 3.04 218.19 2.92 223.77 L 1.86 224.48 Z" />
</g>
<g id="#595959ff">
<path fill="#595959" opacity="1.00" d=" M 407.00 203.99 L 407.86 204.08 L 408.19 205.12 L 407.61 206.00 C 407.45 205.49 407.15 204.49 407.00 203.99 Z" />
<path fill="#595959" opacity="1.00" d=" M 135.34 237.22 C 134.55 235.63 134.57 232.32 135.95 231.33 C 135.96 233.24 136.96 235.70 135.34 237.22 Z" />
</g>
<g id="#795f69ff">
<path fill="#795f69" opacity="1.00" d=" M 142.29 205.94 L 143.01 205.61 C 143.05 208.22 141.87 210.60 141.08 213.04 C 139.46 217.32 138.53 221.82 137.39 226.25 C 136.91 227.71 137.47 229.74 135.87 230.63 C 136.73 222.15 139.56 213.98 142.29 205.94 Z" />
</g>
<g id="#707070ff">
<path fill="#707070" opacity="1.00" d=" M 184.37 209.91 C 183.36 209.02 183.07 205.60 185.05 206.08 C 185.18 207.40 184.87 208.70 184.37 209.91 Z" />
</g>
<g id="#806e75ff">
<path fill="#806e75" opacity="1.00" d=" M 407.81 206.80 L 408.83 207.10 C 410.36 212.15 411.62 217.32 412.52 222.49 C 413.63 224.59 412.42 227.18 413.79 229.21 C 414.46 231.74 413.87 234.48 413.85 237.08 C 412.61 226.85 410.62 216.73 407.81 206.80 Z" />
</g>
<g id="#6a5a60ff">
<path fill="#6a5a60" opacity="1.00" d=" M 113.08 210.00 L 114.23 209.99 C 113.54 212.43 112.93 214.89 112.35 217.36 C 111.12 214.75 112.78 212.53 113.08 210.00 Z" />
</g>
<g id="#7b5966ff">
<path fill="#7b5966" opacity="1.00" d=" M 183.04 211.10 L 184.08 210.78 C 184.07 216.79 183.40 222.96 185.24 228.80 C 189.64 245.87 200.93 259.91 211.76 273.38 C 208.12 272.70 207.15 268.69 204.74 266.44 C 201.03 261.12 197.04 255.96 193.48 250.52 C 192.34 246.87 189.06 244.38 188.50 240.52 C 186.06 236.37 184.73 231.72 183.95 227.02 C 184.00 225.67 183.62 224.42 182.89 223.30 C 183.09 219.23 182.89 215.16 183.04 211.10 Z" />
</g>
<g id="#867079ff">
<path fill="#867079" opacity="1.00" d=" M 233.90 214.10 C 236.05 213.65 237.01 217.49 235.71 218.86 C 234.95 217.33 234.28 215.76 233.90 214.10 Z" />
</g>
<g id="#796b70ff">
<path fill="#796b70" opacity="1.00" d=" M 111.06 218.00 L 112.20 217.98 C 110.84 223.65 110.15 229.42 109.24 235.15 C 108.20 229.27 110.46 223.76 111.06 218.00 Z" />
</g>
<g id="#666666ff">
<path fill="#666666" opacity="1.00" d=" M 509.27 218.13 C 510.06 220.04 510.31 222.12 509.96 224.16 C 507.54 223.17 509.01 220.01 509.27 218.13 Z" />
<path fill="#666666" opacity="1.00" d=" M 163.94 365.82 C 164.44 364.74 165.35 364.45 166.67 364.96 C 166.32 366.27 165.41 366.56 163.94 365.82 Z" />
<path fill="#666666" opacity="1.00" d=" M 218.12 509.24 C 220.02 509.03 223.12 507.56 224.18 509.95 C 222.12 510.30 220.01 510.10 218.12 509.24 Z" />
<path fill="#666666" opacity="1.00" d=" M 287.83 509.96 C 288.82 507.54 291.99 509.02 293.88 509.25 C 291.97 510.05 289.88 510.31 287.83 509.96 Z" />
</g>
<g id="#835d6bff">
<path fill="#835d6b" opacity="1.00" d=" M 227.66 233.05 C 230.74 228.86 234.58 224.97 236.01 219.83 C 236.01 221.17 236.01 222.51 236.00 223.86 C 232.90 226.58 232.00 232.00 227.66 233.05 Z" />
</g>
<g id="#685b60ff">
<path fill="#685b60" opacity="1.00" d=" M 385.17 221.79 C 386.45 224.87 386.85 228.34 387.15 231.65 C 385.06 230.20 386.49 227.10 384.92 225.18 C 384.98 224.34 385.11 222.64 385.17 221.79 Z" />
</g>
<g id="#606060ff">
<path fill="#606060" opacity="1.00" d=" M 0.81 234.36 C 0.95 231.18 1.07 227.99 1.81 224.88 C 1.89 227.83 2.23 230.80 1.91 233.76 L 0.81 234.36 Z" />
<path fill="#606060" opacity="1.00" d=" M 245.14 378.13 C 248.67 378.09 252.21 377.81 255.74 378.08 L 256.59 378.92 C 252.76 379.19 248.88 379.05 245.14 378.13 Z" />
<path fill="#606060" opacity="1.00" d=" M 141.07 398.54 C 141.97 398.00 142.94 397.81 143.98 397.98 L 143.99 398.76 L 143.08 399.31 C 142.58 399.12 141.57 398.73 141.07 398.54 Z" />
</g>
<g id="#636363ff">
<path fill="#636363" opacity="1.00" d=" M 510.12 224.86 C 511.01 228.01 511.04 231.29 511.13 234.53 L 510.05 233.76 C 509.85 230.79 510.09 227.82 510.12 224.86 Z" />
<path fill="#636363" opacity="1.00" d=" M 135.36 266.74 C 136.99 268.29 135.94 270.71 135.98 272.66 C 134.65 271.67 134.47 268.32 135.36 266.74 Z" />
<path fill="#636363" opacity="1.00" d=" M 413.04 273.97 C 412.74 272.00 413.03 270.04 413.57 268.15 C 414.33 269.62 415.22 273.66 413.04 273.97 Z" />
<path fill="#636363" opacity="1.00" d=" M 136.31 273.77 C 137.61 274.70 137.22 276.42 136.97 277.75 C 135.59 277.53 135.52 274.76 136.31 273.77 Z" />
<path fill="#636363" opacity="1.00" d=" M 224.88 510.11 C 227.83 510.13 230.80 509.77 233.76 510.09 L 234.36 511.19 C 231.18 511.01 227.96 511.00 224.88 510.11 Z" />
<path fill="#636363" opacity="1.00" d=" M 277.36 510.99 C 280.04 508.83 283.96 510.53 287.15 510.11 C 283.96 510.99 280.64 511.13 277.36 510.99 Z" />
</g>
<g id="#bcbcbcff">
<path fill="#bcbcbc" opacity="1.00" d=" M 0.00 234.14 L 0.81 234.36 C 1.82 235.86 1.04 237.74 0.40 239.23 L 0.00 238.87 L 0.00 234.14 Z" />
</g>
<g id="#86586aff">
<path fill="#86586a" opacity="1.00" d=" M 223.05 239.20 C 224.28 236.95 226.09 235.10 227.64 233.08 C 229.37 236.39 222.57 237.25 224.02 241.04 C 225.81 247.01 230.57 251.32 233.62 256.59 C 235.34 259.15 238.35 260.65 239.57 263.58 C 240.78 265.82 243.81 266.83 244.18 269.54 C 236.32 262.33 229.85 253.71 224.27 244.64 C 223.16 243.05 222.60 241.12 223.05 239.20 Z" />
</g>
<g id="#817c7eff">
<path fill="#817c7e" opacity="1.00" d=" M 107.99 236.01 L 109.10 235.91 C 109.10 243.94 107.84 251.97 108.84 259.99 C 108.80 267.14 110.10 274.17 111.22 281.21 C 108.92 281.24 110.53 278.35 109.71 277.06 C 108.47 274.86 109.14 272.31 108.95 269.92 C 108.65 268.60 107.76 267.39 107.94 265.98 C 108.06 255.99 107.96 246.00 107.99 236.01 Z" />
</g>
<g id="#575757ff">
<path fill="#575757" opacity="1.00" d=" M 134.00 249.97 C 133.94 245.92 133.94 241.82 134.77 237.83 C 135.16 247.23 135.09 256.66 134.81 266.06 C 133.64 260.77 134.07 255.34 134.00 249.97 Z" />
</g>
<g id="#323232ff">
<path fill="#323232" opacity="1.00" d=" M 0.00 238.87 L 0.40 239.23 C 1.36 250.46 1.27 261.81 0.43 273.05 L 0.00 273.43 L 0.00 238.87 Z" />
</g>
<g id="#756e71ff">
<path fill="#756e71" opacity="1.00" d=" M 388.13 238.94 C 389.97 249.24 388.86 259.80 387.72 270.11 C 386.90 272.42 387.49 275.12 386.17 277.23 C 385.73 271.76 387.48 266.43 388.01 261.02 C 388.05 253.66 387.85 246.29 388.13 238.94 Z" />
</g>
<g id="#2f2f2fff">
<path fill="#2f2f2f" opacity="1.00" d=" M 511.90 239.97 L 512.00 241.27 L 512.00 273.08 L 511.59 272.70 C 511.06 267.47 510.88 262.21 511.00 256.96 C 511.13 251.29 510.50 245.53 511.90 239.97 Z" />
</g>
<g id="#7e5867ff">
<path fill="#7e5867" opacity="1.00" d=" M 244.75 270.05 C 247.76 269.19 248.83 272.85 251.00 274.16 C 258.86 279.06 266.27 284.95 275.20 287.78 C 277.19 288.61 279.36 290.98 281.61 289.58 C 283.55 287.59 285.75 285.79 287.43 283.58 C 288.67 280.56 292.04 279.19 293.25 276.15 C 295.24 274.36 296.11 271.74 298.12 269.98 C 304.21 268.76 309.10 272.92 314.60 274.49 C 322.33 278.38 330.07 282.27 337.82 286.13 C 340.62 288.11 340.20 291.88 339.95 294.88 L 338.96 295.25 C 338.99 293.22 339.10 291.18 338.83 289.16 C 338.03 287.26 336.02 286.48 334.34 285.58 C 324.66 280.83 315.03 275.96 305.15 271.65 C 302.74 270.65 299.19 269.95 297.46 272.44 C 293.35 277.95 289.08 283.36 284.47 288.46 C 283.05 290.16 280.63 291.39 278.46 290.39 C 266.09 285.76 254.53 278.94 244.75 270.05 Z" />
</g>
<g id="#b6b6b6ff">
<path fill="#b6b6b6" opacity="1.00" d=" M 511.59 272.70 L 512.00 273.08 L 512.00 276.96 L 511.15 276.85 C 510.62 275.41 510.77 274.02 511.59 272.70 Z" />
<path fill="#b6b6b6" opacity="1.00" d=" M 272.78 511.31 C 274.13 510.61 275.46 510.62 276.76 511.33 L 276.36 512.00 L 272.76 512.00 L 272.78 511.31 Z" />
</g>
<g id="#885166ff">
<path fill="#885166" opacity="1.00" d=" M 212.06 273.73 C 218.44 281.19 225.44 288.12 232.79 294.61 L 231.32 295.10 C 224.89 288.67 218.46 282.24 212.02 275.82 C 212.03 275.30 212.05 274.26 212.06 273.73 Z" />
</g>
<g id="#6f6f6fff">
<path fill="#6f6f6f" opacity="1.00" d=" M 412.00 279.95 C 411.76 278.32 412.08 276.71 412.68 275.20 C 413.47 276.38 414.13 280.13 412.00 279.95 Z" />
</g>
<g id="#855f6dff">
<path fill="#855f6d" opacity="1.00" d=" M 383.79 283.98 C 384.62 281.80 384.24 278.92 386.18 277.35 C 382.73 296.77 373.79 315.07 361.69 330.59 C 357.42 335.71 353.24 341.04 348.02 345.24 C 348.22 344.81 348.61 343.94 348.81 343.51 C 360.29 332.00 369.88 318.55 376.82 303.80 C 379.55 297.34 381.76 290.68 383.79 283.98 Z" />
</g>
<g id="#646464ff">
<path fill="#646464" opacity="1.00" d=" M 510.11 287.16 C 510.61 284.02 508.66 279.85 511.12 277.43 C 511.05 280.69 511.00 283.99 510.11 287.16 Z" />
</g>
<g id="#77676dff">
<path fill="#77676d" opacity="1.00" d=" M 136.87 278.34 C 138.72 280.37 138.90 283.47 138.90 286.11 C 137.42 283.93 137.26 280.91 136.87 278.34 Z" />
</g>
<g id="#6b6b6bff">
<path fill="#6b6b6b" opacity="1.00" d=" M 410.91 284.91 C 410.83 283.59 411.10 282.31 411.62 281.11 C 412.63 281.99 412.91 285.48 410.91 284.91 Z" />
</g>
<g id="#68585eff">
<path fill="#68585e" opacity="1.00" d=" M 408.77 293.01 C 409.46 290.55 410.02 288.05 410.73 285.60 C 410.84 286.53 411.06 288.39 411.17 289.32 C 410.33 290.38 409.92 291.64 409.93 293.00 L 408.77 293.01 Z" />
</g>
<g id="#7c5866ff">
<path fill="#7c5866" opacity="1.00" d=" M 138.90 286.38 C 140.25 287.52 140.52 289.35 141.07 290.93 C 143.58 299.46 147.96 307.22 151.83 315.16 C 153.25 318.02 155.57 320.32 156.93 323.20 C 157.48 325.78 156.72 328.68 154.93 330.63 C 154.65 328.19 156.93 325.73 155.69 323.39 C 148.43 311.95 141.91 299.67 138.90 286.38 Z" />
</g>
<g id="#676767ff">
<path fill="#676767" opacity="1.00" d=" M 509.27 293.84 C 509.00 291.97 507.54 288.82 509.96 287.84 C 510.32 289.87 510.06 291.94 509.27 293.84 Z" />
</g>
<g id="#746269ff">
<path fill="#746269" opacity="1.00" d=" M 113.42 291.00 C 114.30 292.87 114.87 294.88 115.03 296.94 C 113.19 296.63 112.09 292.55 113.42 291.00 Z" />
</g>
<g id="#815d6bff">
<path fill="#815d6b" opacity="1.00" d=" M 378.29 350.39 C 392.28 333.84 402.65 314.29 408.63 293.47 C 409.95 296.47 407.68 299.23 407.06 302.11 C 405.15 308.74 401.51 314.65 399.25 321.13 C 396.93 323.73 395.89 327.07 394.24 330.07 C 390.14 336.16 386.16 342.34 381.71 348.15 C 380.75 349.12 379.77 350.27 378.29 350.39 Z" />
</g>
<g id="#74656bff">
<path fill="#74656b" opacity="1.00" d=" M 2.85 294.36 L 3.81 295.31 C 3.81 300.46 6.56 305.32 5.73 310.46 C 4.39 305.18 3.32 299.79 2.85 294.36 Z" />
</g>
<g id="#815968ff">
<path fill="#815968" opacity="1.00" d=" M 233.04 294.79 C 245.81 305.84 260.80 313.98 276.61 319.78 C 274.99 320.60 273.47 319.52 271.96 319.10 C 262.10 315.03 252.23 310.58 243.56 304.26 C 240.26 300.93 234.61 299.56 233.04 294.79 Z" />
</g>
<g id="#77686eff">
<path fill="#77686e" opacity="1.00" d=" M 507.77 299.03 C 508.22 297.47 507.46 295.35 509.12 294.35 C 508.67 299.78 507.61 305.17 506.26 310.44 C 505.43 306.54 507.28 302.84 507.77 299.03 Z" />
</g>
<g id="#7c7c7cff">
<path fill="#7c7c7c" opacity="1.00" d=" M 337.95 300.90 C 337.77 299.30 338.15 297.73 338.69 296.24 C 339.57 297.40 340.13 301.17 337.95 300.90 Z" />
<path fill="#7c7c7c" opacity="1.00" d=" M 237.04 403.02 C 238.98 402.67 240.89 403.14 242.72 403.76 C 241.19 404.35 237.24 405.30 237.04 403.02 Z" />
</g>
<g id="#825a6aff">
<path fill="#825a6a" opacity="1.00" d=" M 333.23 311.20 C 335.78 308.56 336.61 304.91 337.76 301.55 C 338.61 304.45 337.11 307.35 335.84 309.89 C 333.42 312.37 330.94 314.80 328.50 317.26 C 324.23 320.38 319.48 322.85 314.52 324.64 C 312.70 325.42 310.70 324.95 308.82 324.82 C 318.14 323.12 326.88 318.23 333.23 311.20 Z" />
</g>
<g id="#7a5966ff">
<path fill="#7a5966" opacity="1.00" d=" M 117.22 303.38 C 120.56 312.05 124.47 320.48 128.93 328.63 C 127.93 331.51 127.19 334.48 126.39 337.43 C 125.47 334.46 126.99 331.39 127.93 328.54 C 126.23 326.90 125.64 324.49 124.48 322.49 C 122.82 318.82 120.51 315.43 119.45 311.52 C 118.46 308.92 116.47 306.24 117.22 303.38 Z" />
</g>
<g id="#6f5a62ff">
<path fill="#6f5a62" opacity="1.00" d=" M 5.74 310.50 L 6.72 311.33 C 7.67 316.37 10.18 321.31 9.74 326.50 C 8.06 321.26 6.72 315.91 5.74 310.50 Z" />
</g>
<g id="#735d66ff">
<path fill="#735d66" opacity="1.00" d=" M 505.01 312.07 C 505.32 311.67 505.94 310.89 506.25 310.49 C 505.29 315.90 503.93 321.25 502.24 326.47 C 501.75 321.54 504.24 316.90 505.01 312.07 Z" />
</g>
<g id="#5b5b5bff">
<path fill="#5b5b5b" opacity="1.00" d=" M 277.03 319.94 C 277.53 320.12 278.53 320.49 279.03 320.67 L 278.16 321.20 L 277.12 320.83 L 277.03 319.94 Z" />
</g>
<g id="#555555ff">
<path fill="#555555" opacity="1.00" d=" M 279.99 321.01 C 280.50 321.17 281.52 321.49 282.03 321.65 C 281.55 321.70 280.59 321.81 280.11 321.86 L 279.99 321.01 Z" />
</g>
<g id="#5f5f5fff">
<path fill="#5f5f5f" opacity="1.00" d=" M 282.98 322.00 C 283.48 322.16 284.48 322.47 284.98 322.63 L 284.12 323.19 L 283.09 322.86 L 282.98 322.00 Z" />
</g>
<g id="#827479ff">
<path fill="#827479" opacity="1.00" d=" M 285.81 322.86 C 288.60 323.54 291.40 324.17 294.20 324.80 C 291.47 325.18 287.28 325.39 285.81 322.86 Z" />
</g>
<g id="#484848ff">
<path fill="#484848" opacity="1.00" d=" M 294.95 324.91 C 299.30 325.24 303.68 325.18 308.03 324.92 L 307.99 326.01 C 303.66 325.98 299.34 325.97 295.01 326.01 L 294.95 324.91 Z" />
</g>
<g id="#7d5464ff">
<path fill="#7d5464" opacity="1.00" d=" M 9.74 326.50 L 10.71 327.34 C 13.14 333.12 14.62 339.28 16.90 345.14 C 18.85 349.89 20.77 354.66 22.59 359.47 C 30.55 376.74 40.28 393.15 51.43 408.54 C 55.15 412.53 57.67 417.51 61.86 421.09 C 65.10 426.25 70.15 429.83 74.08 434.41 L 73.69 435.92 C 43.74 405.54 21.16 367.67 9.74 326.50 Z" />
</g>
<g id="#785965ff">
<path fill="#785965" opacity="1.00" d=" M 500.14 330.23 C 500.65 328.90 500.88 327.28 502.23 326.50 C 499.88 335.35 496.98 344.12 493.22 352.48 C 492.58 349.31 494.75 346.63 495.65 343.76 C 497.16 339.25 498.65 334.74 500.14 330.23 Z" />
</g>
<g id="#77616aff">
<path fill="#77616a" opacity="1.00" d=" M 151.90 341.64 C 152.52 337.93 153.38 334.09 154.93 330.69 C 154.83 334.42 154.24 338.63 151.90 341.64 Z" />
<path fill="#77616a" opacity="1.00" d=" M 122.10 348.99 L 123.23 348.97 C 122.29 352.45 121.34 355.93 120.37 359.41 C 119.35 355.90 121.63 352.51 122.10 348.99 Z" />
</g>
<g id="#755f67ff">
<path fill="#755f67" opacity="1.00" d=" M 148.88 352.65 C 149.51 348.96 150.36 345.13 151.90 341.76 C 151.85 345.47 151.20 349.68 148.88 352.65 Z" />
<path fill="#755f67" opacity="1.00" d=" M 167.54 391.75 C 172.35 390.18 177.28 389.02 182.20 387.81 L 181.88 388.84 C 178.04 390.24 173.88 390.52 170.13 392.10 C 169.48 392.01 168.19 391.84 167.54 391.75 Z" />
</g>
<g id="#795764ff">
<path fill="#795764" opacity="1.00" d=" M 345.19 346.03 C 345.81 345.96 347.05 345.82 347.67 345.75 C 329.99 361.91 307.76 373.20 284.12 377.27 C 278.58 378.08 273.01 379.43 267.37 378.92 L 268.26 378.08 C 274.89 378.36 281.32 376.82 287.80 375.60 C 297.90 373.25 307.91 370.09 317.08 365.17 C 327.34 360.27 337.16 354.12 345.19 346.03 Z" />
</g>
<g id="#855265ff">
<path fill="#855265" opacity="1.00" d=" M 355.23 372.55 C 363.54 366.13 371.08 358.74 377.95 350.80 C 377.96 351.30 377.98 352.29 377.99 352.79 C 372.78 358.01 367.55 363.22 362.33 368.44 C 360.04 369.52 358.35 371.37 356.64 373.18 L 355.23 372.55 Z" />
</g>
<g id="#725d65ff">
<path fill="#725d65" opacity="1.00" d=" M 145.85 363.64 C 146.56 360.01 147.28 356.14 148.88 352.87 C 148.82 356.53 148.20 360.74 145.85 363.64 Z" />
</g>
<g id="#775763ff">
<path fill="#775763" opacity="1.00" d=" M 490.22 359.63 C 489.52 356.93 491.25 354.41 493.14 352.67 C 492.45 355.10 491.38 357.39 490.22 359.63 Z" />
</g>
<g id="#7a5664ff">
<path fill="#7a5664" opacity="1.00" d=" M 186.30 360.10 C 188.33 358.39 191.70 356.92 194.10 358.77 C 196.45 360.62 199.25 361.72 201.78 363.27 C 205.61 366.38 211.11 366.49 214.62 370.14 C 206.57 367.74 199.30 363.17 192.04 358.99 C 190.05 358.98 188.32 360.29 186.30 360.10 Z" />
<path fill="#7a5664" opacity="1.00" d=" M 469.20 396.14 C 470.69 393.93 471.48 390.67 474.32 389.87 C 463.97 407.20 451.14 422.96 436.99 437.32 C 438.68 431.06 445.49 428.29 448.75 422.98 C 450.08 420.65 452.40 419.17 454.01 417.07 C 459.09 410.10 464.42 403.30 469.20 396.14 Z" />
</g>
<g id="#79646cff">
<path fill="#79646c" opacity="1.00" d=" M 119.10 360.01 L 120.22 359.98 C 119.24 363.48 118.40 367.01 117.25 370.46 C 116.50 366.90 118.53 363.52 119.10 360.01 Z" />
<path fill="#79646c" opacity="1.00" d=" M 185.54 502.25 C 186.16 502.20 187.41 502.10 188.03 502.05 C 194.44 503.52 200.75 505.47 207.24 506.59 C 208.72 507.03 210.64 506.67 211.65 508.13 C 202.80 506.99 194.06 504.86 185.54 502.25 Z" />
</g>
<g id="#845c6bff">
<path fill="#845c6b" opacity="1.00" d=" M 487.81 362.75 C 488.41 361.59 488.96 360.28 490.21 359.66 C 485.86 370.17 480.40 380.25 474.33 389.87 L 474.10 388.41 C 476.03 384.38 478.86 380.79 480.87 376.78 C 483.12 372.07 485.52 367.44 487.81 362.75 Z" />
</g>
<g id="#78626bff">
<path fill="#78626b" opacity="1.00" d=" M 172.95 362.78 C 176.00 362.11 178.97 361.01 182.12 360.87 L 181.60 361.64 C 176.81 362.60 172.20 364.48 167.35 365.09 C 168.77 363.48 171.02 363.31 172.95 362.78 Z" />
</g>
<g id="#735e66ff">
<path fill="#735e66" opacity="1.00" d=" M 143.71 371.31 C 144.27 368.73 144.56 365.99 145.85 363.66 C 146.29 365.90 145.40 368.00 144.85 370.13 C 150.96 368.79 156.92 366.58 163.15 365.89 C 162.00 367.51 159.75 367.03 158.10 367.77 C 153.30 368.92 148.59 370.50 143.71 371.31 Z" />
</g>
<g id="#745b64ff">
<path fill="#745b64" opacity="1.00" d=" M 215.22 370.11 C 216.82 369.88 218.31 370.72 219.82 371.15 C 227.54 374.02 235.61 375.87 243.73 377.19 L 244.61 377.99 C 234.39 377.20 224.44 374.04 214.79 370.64 L 215.22 370.11 Z" />
</g>
<g id="#6f5c63ff">
<path fill="#6f5c63" opacity="1.00" d=" M 115.50 377.03 C 114.04 375.56 115.21 371.27 117.06 371.11 C 116.87 373.15 116.23 375.12 115.50 377.03 Z" />
</g>
<g id="#815a69ff">
<path fill="#815a69" opacity="1.00" d=" M 304.47 398.63 C 322.73 393.25 339.95 384.44 354.97 372.75 C 355.13 374.48 353.33 375.43 352.09 376.20 C 338.57 386.33 323.21 393.81 307.18 399.09 C 306.50 398.98 305.15 398.74 304.47 398.63 Z" />
</g>
<g id="#6c575fff">
<path fill="#6c575f" opacity="1.00" d=" M 113.10 381.23 C 114.47 380.34 113.10 377.57 115.27 377.82 C 114.34 381.39 113.38 384.95 112.38 388.51 C 110.94 385.91 113.45 383.87 113.10 381.23 Z" />
</g>
<g id="#865f6eff">
<path fill="#865f6e" opacity="1.00" d=" M 186.75 386.59 C 187.06 386.48 187.68 386.24 187.99 386.12 C 192.58 388.27 197.03 390.71 201.67 392.75 L 199.93 393.17 C 195.45 391.16 191.13 388.80 186.75 386.59 Z" />
</g>
<g id="#735c65ff">
<path fill="#735c65" opacity="1.00" d=" M 148.54 396.74 C 153.29 395.15 158.20 394.09 163.04 392.80 L 163.00 393.90 C 159.53 394.74 156.09 395.67 152.62 396.47 C 151.34 397.16 149.98 397.25 148.54 396.74 Z" />
</g>
<g id="#79606aff">
<path fill="#79606a" opacity="1.00" d=" M 202.09 392.90 C 203.52 393.20 204.85 393.81 206.11 394.54 C 204.98 395.89 201.44 394.82 202.09 392.90 Z" />
</g>
<g id="#715660ff">
<path fill="#715660" opacity="1.00" d=" M 206.82 394.80 C 210.73 396.04 214.53 397.60 218.50 398.65 C 215.83 399.90 213.49 397.88 210.95 397.36 C 209.56 396.67 207.04 396.75 206.82 394.80 Z" />
</g>
<g id="#545454ff">
<path fill="#545454" opacity="1.00" d=" M 145.01 397.56 C 145.91 397.01 146.88 396.80 147.93 396.92 L 147.99 397.71 L 147.09 398.27 C 146.57 398.09 145.53 397.74 145.01 397.56 Z" />
</g>
<g id="#776069ff">
<path fill="#776069" opacity="1.00" d=" M 125.48 402.74 C 130.32 401.20 135.28 400.06 140.20 398.80 L 139.88 399.83 C 136.05 401.22 131.94 401.53 128.18 403.09 C 127.51 403.00 126.15 402.83 125.48 402.74 Z" />
</g>
<g id="#725f66ff">
<path fill="#725f66" opacity="1.00" d=" M 219.00 398.79 C 222.75 399.98 226.64 400.64 230.42 401.74 C 226.48 402.79 222.88 400.42 219.00 399.91 L 219.00 398.79 Z" />
</g>
<g id="#6f5b63ff">
<path fill="#6f5b63" opacity="1.00" d=" M 292.60 401.65 C 296.42 400.76 300.24 399.88 304.00 398.77 L 304.00 399.91 C 300.12 400.37 296.51 402.87 292.60 401.65 Z" />
</g>
<g id="#6e5b62ff">
<path fill="#6e5b62" opacity="1.00" d=" M 108.07 400.00 L 109.25 399.98 C 108.59 402.43 107.91 404.86 107.24 407.31 C 111.97 406.36 116.55 404.84 121.26 403.78 L 120.88 404.83 C 115.85 405.97 110.95 408.11 105.80 408.00 C 107.09 406.70 107.03 404.91 107.07 403.23 C 107.79 402.28 108.12 401.21 108.07 400.00 Z" />
</g>
<g id="#717171ff">
<path fill="#717171" opacity="1.00" d=" M 231.09 401.92 C 232.70 401.82 234.31 402.10 235.83 402.67 C 234.63 403.47 230.75 404.15 231.09 401.92 Z" />
</g>
<g id="#6d6266ff">
<path fill="#6d6266" opacity="1.00" d=" M 280.54 403.65 C 284.36 402.99 288.22 402.56 292.02 401.76 L 292.01 402.99 C 289.99 402.93 287.91 402.91 286.18 404.07 C 284.28 404.20 282.40 403.94 280.54 403.65 Z" />
</g>
<g id="#888888ff">
<path fill="#888888" opacity="1.00" d=" M 243.76 403.95 C 247.57 403.87 251.35 404.26 255.11 404.82 C 251.45 405.06 247.78 405.13 244.12 404.96 L 243.76 403.95 Z" />
</g>
<g id="#0a0a0aff">
<path fill="#0a0a0a" opacity="1.00" d=" M 260.10 405.02 C 260.80 405.02 262.22 405.01 262.93 405.01 C 263.45 406.66 259.55 406.63 260.10 405.02 Z" />
</g>
<g id="#755f68ff">
<path fill="#755f68" opacity="1.00" d=" M 73.83 436.07 C 76.26 437.20 78.65 438.51 80.42 440.58 C 82.79 443.33 86.07 445.40 87.54 448.83 C 82.71 444.87 78.29 440.43 73.83 436.07 Z" />
</g>
<g id="#6a505aff">
<path fill="#6a505a" opacity="1.00" d=" M 430.14 442.09 C 432.08 440.33 433.62 437.55 436.62 437.68 C 432.55 441.29 428.87 445.33 424.60 448.71 C 425.65 445.92 428.20 444.22 430.14 442.09 Z" />
<path fill="#6a505a" opacity="1.00" d=" M 417.44 454.81 C 418.94 452.20 421.02 448.76 424.43 448.85 C 422.14 450.88 419.89 452.97 417.44 454.81 Z" />
</g>
<g id="#6d535dff">
<path fill="#6d535d" opacity="1.00" d=" M 87.70 448.97 C 91.07 448.71 93.06 452.30 94.55 454.80 C 92.15 452.99 89.96 450.95 87.70 448.97 Z" />
</g>
<g id="#815b6aff">
<path fill="#815b6a" opacity="1.00" d=" M 94.78 455.00 C 95.27 455.03 96.24 455.10 96.73 455.13 C 102.93 460.52 109.88 464.86 116.46 469.74 C 124.53 474.27 132.12 479.67 140.57 483.49 C 153.69 490.50 167.71 495.60 181.85 500.14 C 183.14 500.64 184.73 500.87 185.47 502.24 C 152.39 493.07 121.34 476.71 94.78 455.00 Z" />
</g>
<g id="#795462ff">
<path fill="#795462" opacity="1.00" d=" M 396.86 468.79 C 403.05 464.36 409.30 459.98 415.24 455.20 C 415.73 455.15 416.70 455.07 417.18 455.02 C 408.56 462.11 399.46 468.65 389.86 474.33 C 390.82 471.25 394.45 470.46 396.86 468.79 Z" />
</g>
<g id="#73535fff">
<path fill="#73535f" opacity="1.00" d=" M 352.64 493.15 C 354.36 491.26 356.92 489.55 359.60 490.20 C 357.38 491.41 355.07 492.45 352.64 493.15 Z" />
</g>
<g id="#755662ff">
<path fill="#755662" opacity="1.00" d=" M 345.16 495.11 C 347.52 494.18 349.88 492.66 352.54 493.19 C 344.17 496.95 335.40 499.89 326.54 502.24 L 327.35 501.30 C 333.15 498.88 339.30 497.39 345.16 495.11 Z" />
</g>
<g id="#77626aff">
<path fill="#77626a" opacity="1.00" d=" M 315.91 504.04 C 319.45 503.48 322.84 501.54 326.50 502.25 C 316.02 505.37 305.27 507.98 294.39 509.11 C 295.37 507.42 297.52 508.23 299.07 507.77 C 304.67 506.48 310.38 505.67 315.91 504.04 Z" />
</g>
<g id="#bfbfbfff">
<path fill="#bfbfbf" opacity="1.00" d=" M 234.36 511.19 C 235.86 510.18 237.74 510.96 239.24 511.59 L 238.88 512.00 L 234.14 512.00 L 234.36 511.19 Z" />
</g>
<g id="#3a3a3aff">
<path fill="#3a3a3a" opacity="1.00" d=" M 239.24 511.59 C 242.81 511.18 246.40 510.94 250.00 510.95 C 251.51 511.13 253.53 510.45 254.56 512.00 L 238.88 512.00 L 239.24 511.59 Z" />
</g>
<g id="#161616ff">
<path fill="#161616" opacity="1.00" d=" M 257.80 512.00 C 259.51 509.87 262.79 511.25 265.14 511.20 L 265.13 512.00 L 257.80 512.00 Z" />
</g>
<g id="#5a5a5aff">
<path fill="#5a5a5a" opacity="1.00" d=" M 265.14 511.20 C 267.68 510.89 270.23 511.11 272.78 511.31 L 272.76 512.00 L 265.13 512.00 L 265.14 511.20 Z" />
</g>
</svg>
